STARTFONT 2.1
COMMENT
COMMENT Converted from OpenType font "red_reg.otf" by "otf2bdf 3.0".
COMMENT
FONT -FreeType-Redaction 20-Medium-R-Normal--46-460-72-72-P-234-ISO10646-1
SIZE 46 72 72
FONTBOUNDINGBOX 51 56 -4 -12
STARTPROPERTIES 19
FOUNDRY "FreeType"
FAMILY_NAME "Redaction 20"
WEIGHT_NAME "Medium"
SLANT "R"
SETWIDTH_NAME "Normal"
ADD_STYLE_NAME ""
PIXEL_SIZE 46
POINT_SIZE 460
RESOLUTION_X 72
RESOLUTION_Y 72
SPACING "P"
AVERAGE_WIDTH 234
CHARSET_REGISTRY "ISO10646"
CHARSET_ENCODING "1"
FONT_ASCENT 41
FONT_DESCENT 13
COPYRIGHT "© 2019 MCKL. All Rights Reserved."
_OTF_FONTFILE "red_reg.otf"
_OTF_PSNAME "Redaction20-Regular"
ENDPROPERTIES
CHARS 346
STARTCHAR 0020
ENCODING 32
SWIDTH 239 0
DWIDTH 11 0
BBX 0 0 0 0
BITMAP
ENDCHAR
STARTCHAR 0021
ENCODING 33
SWIDTH 239 0
DWIDTH 11 0
BBX 5 33 3 0
BITMAP
20
70
F0
F0
70
70
70
70
70
60
60
60
60
20
20
20
20
20
20
20
20
00
00
00
00
00
00
F8
F8
F8
F8
F8
F8
ENDCHAR
STARTCHAR 0022
ENCODING 34
SWIDTH 391 0
DWIDTH 18 0
BBX 13 11 3 22
BITMAP
2040
70F0
F9F8
F9F8
70F0
70F0
70F0
60E0
2060
2060
2060
ENDCHAR
STARTCHAR 0023
ENCODING 35
SWIDTH 739 0
DWIDTH 34 0
BBX 32 32 1 0
BITMAP
00010040
000100C0
00010080
00030080
00020180
00020100
00060100
00060300
00040300
00040200
0FFFFFFF
00080600
00080600
00180400
00100C00
00300800
00201800
00201800
00201800
00403000
00403000
FFFFFFF0
00402000
00402000
00804000
00804000
01808000
01008000
01008000
03008000
03010000
02010000
ENDCHAR
STARTCHAR 0024
ENCODING 36
SWIDTH 500 0
DWIDTH 23 0
BBX 19 38 2 -3
BITMAP
00C000
00C000
00C000
01C000
0FFC00
1FFE00
70C380
70C380
F0C7C0
F0C780
F0C380
F0C100
F0C000
F0C000
FCC000
7F0000
3FC000
1FF000
07FE00
01FF00
007F80
009FC0
00C7C0
00C3E0
00C1E0
00C1E0
70C1E0
F0C1E0
F0C1E0
F0C1C0
F0C380
70C700
3FFE00
0FFC00
01E000
00C000
00C000
00C000
ENDCHAR
STARTCHAR 0025
ENCODING 37
SWIDTH 782 0
DWIDTH 36 0
BBX 32 32 2 0
BITMAP
0F800060
19E00060
30F000C0
70780180
F0780300
F0380300
F03C0600
F03C0E00
F03C0C00
F03C1800
F0383800
F0383000
F0386000
7078E000
7070C000
19C183F8
0F81071C
00020E1E
00060E0E
00060C0F
000C1C0F
001C1C0F
00181C0F
00381C0F
00301C0F
00601C0F
00C01E0F
01800E0E
03800E0E
0300071C
06000398
0E0001F0
ENDCHAR
STARTCHAR 0026
ENCODING 38
SWIDTH 717 0
DWIDTH 33 0
BBX 32 32 1 0
BITMAP
007F8000
00F3C000
01C0E000
0380F000
0780F000
0780F000
0780F000
0780E000
0780E000
07C1C000
07C30000
03E70000
03FC0000
01F003FC
01F803FC
067E00F0
0C7E00E0
183F00E0
381F00C0
781F8180
F80F8180
F807C300
F803E300
F803F600
F801FE00
F800FC00
F800FF00
78007F80
3C00EFE0
3F01DFFF
0FFF07FC
07FE03F8
ENDCHAR
STARTCHAR 0027
ENCODING 39
SWIDTH 239 0
DWIDTH 11 0
BBX 5 11 3 22
BITMAP
20
70
F8
F8
70
70
70
60
20
20
20
ENDCHAR
STARTCHAR 0028
ENCODING 40
SWIDTH 413 0
DWIDTH 19 0
BBX 14 44 3 -10
BITMAP
0004
000C
0038
00F0
01E0
0780
0780
0F00
1F00
1E00
1E00
1C00
3C00
3C00
7C00
7800
7800
7800
F800
F800
F800
F800
F800
F800
F800
F800
7800
7800
7800
7C00
3C00
3C00
3C00
1E00
1E00
1F00
0F00
0F80
0780
03C0
00F0
0038
000C
0004
ENDCHAR
STARTCHAR 0029
ENCODING 41
SWIDTH 413 0
DWIDTH 19 0
BBX 15 44 2 -10
BITMAP
8000
6000
3000
1800
0E00
0780
0780
03C0
03E0
01E0
01F0
00F8
00F8
00F8
00FC
007C
007C
007C
007E
007E
007E
007E
007E
007E
007E
007E
007C
007C
007C
007C
00F8
00F8
00F0
01F0
01E0
03E0
03C0
07C0
0780
0F00
1C00
3000
7000
8000
ENDCHAR
STARTCHAR 002A
ENCODING 42
SWIDTH 413 0
DWIDTH 19 0
BBX 15 18 2 14
BITMAP
0180
0180
0180
8180
E186
719E
39BC
0C70
0440
0C40
0C70
39BC
F18E
E182
8180
0180
0180
0180
ENDCHAR
STARTCHAR 002B
ENCODING 43
SWIDTH 521 0
DWIDTH 24 0
BBX 20 20 2 5
BITMAP
006000
006000
006000
006000
006000
006000
006000
006000
006000
FFFFF0
FFFFF0
006000
006000
006000
006000
006000
006000
006000
006000
006000
ENDCHAR
STARTCHAR 002C
ENCODING 44
SWIDTH 239 0
DWIDTH 11 0
BBX 6 12 2 -6
BITMAP
30
78
7C
7C
7C
3C
0C
0C
08
10
10
E0
ENDCHAR
STARTCHAR 002D
ENCODING 45
SWIDTH 413 0
DWIDTH 19 0
BBX 15 2 2 14
BITMAP
FFFE
FFFE
ENDCHAR
STARTCHAR 002E
ENCODING 46
SWIDTH 239 0
DWIDTH 11 0
BBX 5 6 3 0
BITMAP
F8
F8
F8
F8
F8
F8
ENDCHAR
STARTCHAR 002F
ENCODING 47
SWIDTH 369 0
DWIDTH 17 0
BBX 20 43 -4 -11
BITMAP
000030
000030
000020
000040
0000C0
0000C0
000180
000180
000100
000300
000200
000600
000600
000C00
000C00
001800
001000
003000
003000
002000
002000
004000
004000
004000
00C000
00C000
018000
010000
030000
020000
060000
060000
0C0000
0C0000
080000
180000
100000
300000
600000
600000
400000
C00000
800000
ENDCHAR
STARTCHAR 0030
ENCODING 48
SWIDTH 608 0
DWIDTH 28 0
BBX 22 34 3 -1
BITMAP
003000
03FC00
07FF00
0F0380
1C03E0
1C01F0
3801F0
3800F8
7800F8
7000F8
70007C
F0007C
F0007C
F0007C
F0007C
F0007C
F0007C
F0007C
F0007C
F0007C
F0007C
F0007C
F0007C
F00078
780078
780078
7800F0
1C01E0
1E01E0
1E03C0
0F0380
07FF00
01FE00
003000
ENDCHAR
STARTCHAR 0031
ENCODING 49
SWIDTH 369 0
DWIDTH 17 0
BBX 13 32 2 0
BITMAP
0F00
FF00
3F00
0F00
0F00
0F00
0F00
0F00
0F00
0F00
0F00
0F00
0F00
0F00
0F00
0F00
0F00
0F00
0F00
0F00
0F00
0F00
0F00
0F00
0F00
0F00
0F00
0F00
0F80
0F80
7FE0
FFF8
ENDCHAR
STARTCHAR 0032
ENCODING 50
SWIDTH 500 0
DWIDTH 23 0
BBX 21 32 1 0
BITMAP
07FE00
0FFF00
3C0F80
7803E0
7801E0
F001E0
F801E0
F801E0
7801E0
3001E0
0001E0
0001C0
0003C0
000380
000700
000F00
001E00
001C00
003800
007000
00F000
00E000
01C000
038000
070018
060030
080070
1800F0
3FFFF0
37FFF0
7FFFE0
FFFFE0
ENDCHAR
STARTCHAR 0033
ENCODING 51
SWIDTH 521 0
DWIDTH 24 0
BBX 20 33 2 -1
BITMAP
3FFFF0
7FFFE0
7FFFC0
700100
600300
400600
C00E00
001C00
001C00
003800
007000
00E000
00C000
01FC00
03FE00
0C3FC0
0007C0
0003E0
0001E0
0001F0
0001F0
0001F0
0001F0
7001F0
F001F0
F001E0
F001E0
F001C0
700380
380F00
1FFE00
0FFC00
00C000
ENDCHAR
STARTCHAR 0034
ENCODING 52
SWIDTH 608 0
DWIDTH 28 0
BBX 25 33 2 0
BITMAP
0001C000
0007C000
0007C000
000F8000
000F0000
001E0000
001E0000
003E0000
003C0000
00780000
00F00000
00E00000
01E04000
03C1C000
0381C000
0701C000
0C01C380
0801C300
1001C700
3001DF00
3FFFFF00
7FFFFE00
FFFFFE00
00018000
0001C000
0001C000
0001C000
0001C000
0001C000
0001C000
0003E000
000FF000
001FFC00
ENDCHAR
STARTCHAR 0035
ENCODING 53
SWIDTH 521 0
DWIDTH 24 0
BBX 20 35 2 0
BITMAP
000060
000060
0000C0
0FFFC0
0FFFC0
0BFFC0
080000
180000
100000
100000
100000
100000
100000
100000
100000
17FC00
1FFE00
1FFF80
300FE0
2003E0
0001F0
0001F0
0001F0
0001F0
0001F0
0001F0
3001F0
7001F0
F801F0
F001E0
7001C0
7003C0
380780
1FFE00
0FFC00
ENDCHAR
STARTCHAR 0036
ENCODING 54
SWIDTH 565 0
DWIDTH 26 0
BBX 22 33 2 0
BITMAP
001C00
00FF00
03FFC0
0781E0
0E00F0
0E0078
1C01F8
1C01F8
3801F8
380070
780000
780000
780000
780000
F0FF00
F1FFC0
FE01F0
F801F8
F000F8
F000FC
F8007C
78007C
78007C
78007C
78007C
38007C
3C0078
1E00F0
0E00F0
0F01E0
0781C0
03FF80
00FE00
ENDCHAR
STARTCHAR 0037
ENCODING 55
SWIDTH 478 0
DWIDTH 22 0
BBX 20 34 1 -2
BITMAP
7FFFF0
7FFFF0
7FFF60
F000C0
E000C0
C00080
C00080
800100
000100
000300
000300
000700
000600
000E00
000C00
001800
003800
003800
007000
007000
00E000
00E000
01E000
01C000
03C000
03C000
078000
078000
078000
078000
0F8000
0F8000
0F0000
080000
ENDCHAR
STARTCHAR 0038
ENCODING 56
SWIDTH 543 0
DWIDTH 25 0
BBX 21 34 2 -1
BITMAP
002000
03FE00
0F0F80
0E03C0
3801E0
3801F0
3801F0
3801F0
3801F0
3801F0
3C01E0
3E01E0
1F01C0
1FC380
0FFE00
07FC00
07FE00
0E3F80
1C0FC0
3803E0
7001F0
7001F0
F000F8
F000F8
F000F8
F000F8
F000F8
7000F0
7801F0
3C01E0
1E01C0
0FFF80
07FE00
003000
ENDCHAR
STARTCHAR 0039
ENCODING 57
SWIDTH 565 0
DWIDTH 26 0
BBX 22 33 2 0
BITMAP
006000
03FE00
0FFE00
0E0700
3801C0
3801E0
7001E0
7001F0
F001F0
F000F8
F000F8
F000F8
F000F8
F000FC
7800FC
7800FC
3C01BC
1E077C
0FFEF8
07F8F8
0000F8
0000F8
0000F8
0000F0
3000F0
7801F0
7801E0
7001C0
380180
380380
1C0700
0FFE00
07FC00
ENDCHAR
STARTCHAR 003A
ENCODING 58
SWIDTH 239 0
DWIDTH 11 0
BBX 5 22 3 0
BITMAP
F8
F8
F8
F8
F8
00
00
00
00
00
00
00
00
00
00
00
F8
F8
F8
F8
F8
F8
ENDCHAR
STARTCHAR 003B
ENCODING 59
SWIDTH 239 0
DWIDTH 11 0
BBX 5 28 3 -6
BITMAP
F8
F8
F8
F8
F8
00
00
00
00
00
00
00
00
00
00
00
60
F0
F8
F8
F8
78
18
10
10
20
20
40
ENDCHAR
STARTCHAR 003D
ENCODING 61
SWIDTH 521 0
DWIDTH 24 0
BBX 20 8 2 10
BITMAP
FFFFF0
000000
000000
000000
000000
000000
FFFFF0
FFFFF0
ENDCHAR
STARTCHAR 003F
ENCODING 63
SWIDTH 434 0
DWIDTH 20 0
BBX 19 32 1 0
BITMAP
07FC00
1E3F00
380F00
7003C0
F803C0
F801C0
F801E0
7001E0
0001C0
0003C0
0003C0
000780
000700
000F00
003E00
00F800
01F000
01C000
018000
018000
018000
018000
004000
000000
000000
000000
03E000
03E000
03E000
03E000
03E000
03E000
ENDCHAR
STARTCHAR 0040
ENCODING 64
SWIDTH 760 0
DWIDTH 35 0
BBX 32 33 2 -6
BITMAP
0007FE00
003E07C0
00F000E0
01C00060
03800010
06000018
0C00001C
0800000C
1001F08E
1007FF8E
301E0F07
603C0F07
60781E07
60781E07
40F03C06
C1F03C06
C1E03C06
C1E0780E
C1E0780C
C1E0B01C
C1E1B018
61E6F030
61FE79E0
60FC3FC0
30000000
30000000
10000000
08000000
0C000000
06000000
03800300
00F03C00
003FE000
ENDCHAR
STARTCHAR 0041
ENCODING 65
SWIDTH 717 0
DWIDTH 33 0
BBX 33 33 0 0
BITMAP
0000800000
0000800000
0000C00000
0001C00000
0003E00000
0003E00000
0003F00000
0006F00000
0006F80000
000E780000
000C780000
001C7C0000
00187C0000
00187E0000
00303E0000
00303E0000
00601F0000
00E01F8000
00C00F8000
00C00FC000
01FFFFC000
01FFFFC000
038001E000
030003E000
030003F000
020001F000
020001F800
040000F800
0C0000F800
1C0000F800
3E0000FC00
7F8003FF00
FF8007FF80
ENDCHAR
STARTCHAR 0042
ENCODING 66
SWIDTH 652 0
DWIDTH 30 0
BBX 28 32 1 0
BITMAP
FFFFC000
7FFFF800
0E00FE00
07801F80
07800F80
078007C0
078007C0
078007C0
078007C0
078007C0
07800780
07800F80
07801F00
07803E00
0780FC00
07FFFE00
07801F80
07800FC0
078007E0
078003E0
078003F0
078003F0
078003F0
078001F0
078003F0
078003F0
078007E0
078007C0
0F801F80
0E007F00
FFFFFE00
FFFFF000
ENDCHAR
STARTCHAR 0043
ENCODING 67
SWIDTH 652 0
DWIDTH 30 0
BBX 27 32 2 0
BITMAP
007FE060
01FFF9E0
03F03CE0
0F800760
0F0003E0
1E0003E0
3C0001E0
3C0000E0
7C0000E0
78000060
78000060
F8000000
F8000000
F0000000
F0000000
F0000000
F0000000
F0000000
F8000000
F8000000
F8000000
F8000000
7C000000
7C000000
7C000020
3E000040
1F000180
0F800300
0FE00600
03F83C00
01FFF800
007FE000
ENDCHAR
STARTCHAR 0044
ENCODING 68
SWIDTH 717 0
DWIDTH 33 0
BBX 31 32 1 0
BITMAP
FFFF8000
7FFFF800
1E00FE00
0F800FC0
078007E0
078003F0
078001F0
078000F0
078000F8
07800078
0780007C
0780007C
0780007C
0780003E
0780003E
0780003E
0780003E
0780003E
0780003C
0780003C
0780007C
0780007C
07800078
078000F8
078000F0
078001F0
078007E0
0F800FC0
0F803F00
1E00FE00
FFFFF800
FFFF8000
ENDCHAR
STARTCHAR 0045
ENCODING 69
SWIDTH 652 0
DWIDTH 30 0
BBX 28 32 1 0
BITMAP
FFFFFFC0
7FFFFFE0
0E000FE0
078001E0
078001E0
078000E0
078000E0
078000E0
07800060
07800060
07803020
07803000
07807000
07807000
0780F000
07FFF000
0780F000
07807000
07807000
07807000
07803000
07803030
07800030
07800030
07800020
07800060
078000E0
078000E0
0F8003E0
0E000FE0
FFFFFFE0
FFFFFFC0
ENDCHAR
STARTCHAR 0046
ENCODING 70
SWIDTH 630 0
DWIDTH 29 0
BBX 27 32 1 0
BITMAP
FFFFFFC0
7FFFFFC0
0E000FC0
078001E0
078001E0
078000E0
078000E0
078000E0
07800060
07800060
07803060
07803000
07807000
07807000
0780F000
07FFF000
0600F000
07807000
07807000
07803000
07803000
07803000
07800000
07800000
07800000
07800000
07800000
07800000
0F800000
0FC00000
FFF80000
FFFC0000
ENDCHAR
STARTCHAR 0047
ENCODING 71
SWIDTH 760 0
DWIDTH 35 0
BBX 32 33 2 0
BITMAP
00020000
003FF020
00FFFCE0
03F01F60
0F8003E0
0F0001E0
1E0001E0
1E0000E0
3C0000E0
3C000060
78000060
78000020
F8000000
F8000000
F8000000
F8000000
F8000000
F8001FFF
F8001FFF
F80003F8
F80001F0
F80000F0
F80000F0
7C0000F0
7C0000F0
3E0000F0
3E0000F0
0F800070
0FC000F0
07E003F0
03FC1FF0
01FFFE30
003FF810
ENDCHAR
STARTCHAR 0048
ENCODING 72
SWIDTH 760 0
DWIDTH 35 0
BBX 33 32 1 0
BITMAP
FFFC0FFF80
7FF807FF80
1FC001F800
0F8000F000
078000F000
078000F000
078000F000
078000F000
078000F000
078000F000
078000F000
078000F000
078000F000
078000F000
078000F000
07FFFFF000
0600003000
078000F000
078000F000
078000F000
078000F000
078000F000
078000F000
078000F000
078000F000
078000F000
078000F000
0F8000F000
0F8000F000
1FC001F800
FFF80FFF00
FFFC0FFF80
ENDCHAR
STARTCHAR 0049
ENCODING 73
SWIDTH 347 0
DWIDTH 16 0
BBX 14 32 1 0
BITMAP
FFFC
7FFC
0FC0
0780
0780
0780
0780
0780
0780
0780
0780
0780
0780
0780
0780
0780
0780
0780
0780
0780
0780
0780
0780
0780
0780
0780
0780
0780
0780
0FC0
FFF8
FFFC
ENDCHAR
STARTCHAR 004A
ENCODING 74
SWIDTH 565 0
DWIDTH 26 0
BBX 24 33 1 -1
BITMAP
003FFF
001FFF
0003F0
0001E0
0001E0
0001E0
0001E0
0001E0
0001E0
0001E0
0001E0
0001E0
0001E0
0001E0
0001E0
0001E0
0001E0
0001E0
0001E0
0001E0
0001E0
0001E0
0001E0
3001E0
F801E0
F801E0
F001C0
F00380
780780
380F00
1FFF00
07FC00
00C000
ENDCHAR
STARTCHAR 004B
ENCODING 75
SWIDTH 717 0
DWIDTH 33 0
BBX 32 32 1 0
BITMAP
FFF81FFC
7FF80FFC
1F8003F0
0F000380
0F000700
0F000E00
0F001C00
0F003800
0F007000
0F00E000
0F00C000
0F018000
0F030000
0F078000
0F0F8000
0F3BE000
0F33F000
0E61F000
0EC0F800
0F80FC00
0F00FC00
0F007E00
0F007F00
0F003F80
0F001F80
0F001FC0
0F0007F0
0F0007F0
0F0003F0
1F8001F8
FFF000FE
FFF800FF
ENDCHAR
STARTCHAR 004C
ENCODING 76
SWIDTH 630 0
DWIDTH 29 0
BBX 28 32 1 0
BITMAP
FFFC0000
7FF80000
0FC00000
07800000
07800000
07800000
07800000
07800000
07800000
07800000
07800000
07800000
07800000
07800000
07800000
07800000
07800000
07800000
07800000
07800000
07800000
07800030
07800030
07800060
07800060
07800060
078000E0
078001E0
0F8003E0
0E000FE0
FFFFFFC0
FFFFFFC0
ENDCHAR
STARTCHAR 004D
ENCODING 77
SWIDTH 913 0
DWIDTH 42 0
BBX 40 33 1 -1
BITMAP
FFC00003FF
7FE00007FF
0FE00007F8
07F0000FF0
05F8000CF0
05F8000DF0
04F8000DF0
04FC0009F0
047C0019F0
047E0011F0
047E0011F0
043E0031F0
043F0031F0
041F0071F0
041F0061F0
040F00E1F0
040F80C1F0
040781C1F0
0407C181F0
0407C381F0
0403E301F0
0403E301F0
0401E701F0
0401F601F0
0401FE01F0
0400EC01F0
0400FC01F0
0600F801F0
0E00F801F0
0F007003F8
FFE0701FFE
FFE0301FFF
0000200000
ENDCHAR
STARTCHAR 004E
ENCODING 78
SWIDTH 760 0
DWIDTH 35 0
BBX 33 32 1 0
BITMAP
7F8003FF80
3F8001FF80
1FC0003C00
07F0001800
07F0001000
07F8001000
05FC001000
04FE001000
047F001000
043F001000
041F801000
041F801000
040FC01000
0407E01000
0403F01000
0401FC1000
0400FC1000
0400FE1000
04007F1000
04003F9000
04001FD000
04001FD000
04000FD000
040007F000
040003F000
040001F000
040000F000
0600007000
0E00003000
1F00001000
FFE0001000
FFE0001000
ENDCHAR
STARTCHAR 004F
ENCODING 79
SWIDTH 739 0
DWIDTH 34 0
BBX 30 34 2 -1
BITMAP
00030000
003FF000
00FFFE00
03E03F00
0F0007C0
0F0003E0
1E0003E0
1E0001F0
3C0001F0
3C0000F8
7C0000F8
780000F8
7800007C
F800007C
F800007C
F800007C
F800007C
F800007C
F800007C
F800007C
F800007C
FC000078
7C000078
7C000078
7C0000F0
3E0000F0
3E0001E0
0F0003E0
0F8007C0
07C00F80
03F01F00
00FFFC00
003FF000
00030000
ENDCHAR
STARTCHAR 0050
ENCODING 80
SWIDTH 630 0
DWIDTH 29 0
BBX 26 32 1 0
BITMAP
FFFFE000
7FFFF800
0E007E00
07801F80
07800FC0
07800FC0
078007C0
078007C0
078007C0
078007C0
078007C0
07800FC0
07800F80
07801F80
07803F00
07FFF800
07FFC000
06000000
07800000
07800000
07800000
07800000
07800000
07800000
07800000
07800000
07800000
07800000
07800000
0FC00000
FFF80000
FFFC0000
ENDCHAR
STARTCHAR 0051
ENCODING 81
SWIDTH 739 0
DWIDTH 34 0
BBX 30 40 2 -7
BITMAP
00030000
003FF000
00FFFE00
03E03F00
0F8007C0
0F0003E0
1E0003E0
1E0001F0
3C0001F0
3C0000F8
7C0000F8
78000078
7800007C
F800007C
F800007C
F800007C
F800007C
F800007C
F800007C
F800007C
F800007C
F800007C
7C000078
7C000078
7C1F00F0
3E3F80F0
1E67C0E0
0FC1E3E0
0FC1F7C0
07E1FF80
03F0FF00
00FEFC00
003F7C00
00017E00
00003F00
00003F80
00001F80
00001FC0
00000FF0
000003E0
ENDCHAR
STARTCHAR 0052
ENCODING 82
SWIDTH 695 0
DWIDTH 32 0
BBX 31 32 1 0
BITMAP
FFFFE000
7FFFFC00
0E007E00
07800F80
07800FC0
078007C0
078007C0
078007E0
078007C0
078007C0
078007C0
07800F80
07800F80
07801F00
07807E00
07FFE000
0600F800
0780FC00
07807E00
07803E00
07803F00
07803F00
07801F00
07801F80
07800F80
07800FC0
078007E0
078007E0
078007E0
0FC003F0
FFF803FC
FFFC01FE
ENDCHAR
STARTCHAR 0053
ENCODING 83
SWIDTH 543 0
DWIDTH 25 0
BBX 23 34 1 -1
BITMAP
004000
07FC18
0FFF78
1E0338
3800F8
7800F8
780078
780078
780038
780038
780018
7C0000
7F0000
3FC000
3FF800
1FFE00
03FFE0
00FFF0
001FF8
0003FC
0001FC
0000FE
C0007E
E0003E
E0003E
F0003E
F0003E
F8003C
F80078
EC00F8
6700F0
77FFE0
41FF80
001C00
ENDCHAR
STARTCHAR 0054
ENCODING 84
SWIDTH 652 0
DWIDTH 30 0
BBX 28 32 1 0
BITMAP
FFFFFFF0
FFFFFFF0
FC0E03F0
F00F0070
E00F0030
E00F0030
C00F0010
C00F0010
C00F0010
C00F0010
000F0000
000F0000
000F0000
000F0000
000F0000
000F0000
000F0000
000F0000
000F0000
000F0000
000F0000
000F0000
000F0000
000F0000
000F0000
000F0000
000F0000
000F0000
000F0000
001F8000
01FFF000
01FFF800
ENDCHAR
STARTCHAR 0055
ENCODING 85
SWIDTH 760 0
DWIDTH 35 0
BBX 33 33 1 -1
BITMAP
FFFC03FF80
7FF803FF80
0FC0007C00
0780001000
0780001000
0780001000
0780001000
0780001000
0780001000
0780001000
0780001000
0780001000
0780001000
0780001000
0780001000
0780001000
0780001000
0780001000
0780001000
0780001000
0780001000
0780003000
0780003000
0780003000
07C0003000
07C0007000
07E000E000
03F001C000
03FC07C000
01FFFF8000
007FFE0000
001FF80000
0001800000
ENDCHAR
STARTCHAR 0056
ENCODING 86
SWIDTH 717 0
DWIDTH 33 0
BBX 33 33 0 -1
BITMAP
FFF000FF80
7FE000FF00
1F80003E00
0F80001800
0780001800
07C0003800
07C0003000
03E0003000
03E0007000
03E0006000
03F000E000
01F000C000
01F801C000
01F801C000
00F8018000
007C030000
007E070000
003E060000
003F0E0000
003F0E0000
001F0C0000
001F9C0000
000F980000
000FB80000
0007B00000
0007B00000
0003E00000
0003E00000
0001C00000
0001C00000
0000800000
0000800000
0000800000
ENDCHAR
STARTCHAR 0057
ENCODING 87
SWIDTH 1021 0
DWIDTH 47 0
BBX 47 33 0 -1
BITMAP
FFF07FF007FE
7FF07FF003FC
1F803FC000F0
0F800F8000E0
07800FC000C0
07C007C000C0
03C007C00080
03C007E00180
03E003E00180
03E003F00100
03F001F00300
01F001F00300
01F003F80300
01F803F80700
00F803F80600
00FC06780E00
007C0E7C0C00
007E0C3C1C00
003E0C3C1C00
003E181E1800
003F181E3800
001F301E3000
001FB00F3000
000FB00F7000
000FE00F6000
000FE007E000
0007C007C000
0007C007C000
000380078000
000380038000
000180038000
000180030000
000100010000
ENDCHAR
STARTCHAR 0058
ENCODING 88
SWIDTH 717 0
DWIDTH 33 0
BBX 32 32 0 0
BITMAP
3FFE07FC
3FFE03FC
07F000F0
03F001C0
03F80380
01F80300
01FC0700
00FE0E00
007E1C00
007F1800
003FB800
001FF000
001F6000
000FC000
000FC000
0003F000
0007F000
00077800
000E7C00
001C7C00
001C7E00
00387F00
00703F00
00E01F80
00C01F80
01C00FC0
030007E0
030003F0
060003F8
1E0003F8
7F801FFF
FFC01FFF
ENDCHAR
STARTCHAR 0059
ENCODING 89
SWIDTH 717 0
DWIDTH 33 0
BBX 31 32 1 0
BITMAP
FFF007FE
7FE003FE
3F8000F8
0F800060
07800060
07C000C0
07E00180
03E00180
03F00300
01F80700
00F80600
00FC0C00
007E0C00
003E1800
003F3000
000F6000
000FC000
0007C000
0003C000
0003C000
0003C000
0003C000
0003C000
0003C000
0003C000
0003C000
0003C000
0003C000
0003C000
0007E000
007FFC00
007FFE00
ENDCHAR
STARTCHAR 005A
ENCODING 90
SWIDTH 608 0
DWIDTH 28 0
BBX 26 32 1 0
BITMAP
3FFFFF80
7FFFFF00
7E000E00
78007C00
7800F800
7000F800
7000F000
6001F000
6001E000
6003C000
6007C000
00078000
000F8000
000F0000
001F0000
003E0000
007C0000
00FC0000
00F80000
01F80000
03F00000
03E000C0
07E000C0
07C000C0
078000C0
0F800180
1F000380
3E000380
3C000780
70001F00
FFFFFF00
FFFFFF00
ENDCHAR
STARTCHAR 005B
ENCODING 91
SWIDTH 369 0
DWIDTH 17 0
BBX 12 43 4 -9
BITMAP
FFF0
FFF0
C000
F000
F000
F000
F000
F000
F000
F000
F000
F000
F000
F000
F000
F000
F000
F000
F000
F000
F000
F000
F000
F000
F000
F000
F000
F000
F000
F000
F000
F000
F000
F000
F000
F000
F000
F000
F000
F000
F000
C000
FFF0
ENDCHAR
STARTCHAR 005C
ENCODING 92
SWIDTH 369 0
DWIDTH 17 0
BBX 19 43 1 -11
BITMAP
C00000
C00000
600000
600000
300000
300000
180000
180000
080000
080000
080000
040000
040000
060000
060000
030000
030000
018000
018000
00C000
00C000
006000
006000
006000
003000
003000
001800
000800
000C00
000C00
000600
000600
000300
000300
000100
000100
000100
000080
0000C0
0000C0
000060
000060
000020
ENDCHAR
STARTCHAR 005D
ENCODING 93
SWIDTH 369 0
DWIDTH 17 0
BBX 12 43 1 -9
BITMAP
FFF0
FFF0
0070
01F0
01F0
01F0
01F0
01F0
01F0
01F0
01F0
01F0
01F0
01F0
01F0
01F0
01F0
01F0
01F0
01F0
01F0
01F0
01F0
01F0
01F0
01F0
01F0
01F0
01F0
01F0
01F0
01F0
01F0
01F0
01F0
01F0
01F0
01F0
01F0
01F0
01F0
0070
FFF0
ENDCHAR
STARTCHAR 005E
ENCODING 94
SWIDTH 565 0
DWIDTH 26 0
BBX 21 15 2 17
BITMAP
003000
007800
00FC00
01CE00
018600
030600
070300
060180
0C0180
0C01C0
0800C0
1000E0
300070
300030
E00018
ENDCHAR
STARTCHAR 005F
ENCODING 95
SWIDTH 434 0
DWIDTH 20 0
BBX 20 1 0 -7
BITMAP
FFFFF0
ENDCHAR
STARTCHAR 0060
ENCODING 96
SWIDTH 500 0
DWIDTH 23 0
BBX 9 8 6 25
BITMAP
E000
F000
F800
F800
3E00
0E00
0300
0080
ENDCHAR
STARTCHAR 0061
ENCODING 97
SWIDTH 500 0
DWIDTH 23 0
BBX 21 22 2 0
BITMAP
07F000
0FFE00
381E00
300F00
700F80
780780
700780
000780
000780
007F80
03F780
0F8780
1C0780
780780
F00780
F00780
F00780
F00F80
F83F80
F87798
7FE7F0
3F83C0
ENDCHAR
STARTCHAR 0062
ENCODING 98
SWIDTH 565 0
DWIDTH 26 0
BBX 23 33 1 0
BITMAP
060000
FE0000
7E0000
1E0000
1E0000
1E0000
1E0000
1E0000
1E0000
1E0000
1E0000
1E1F00
1E3FC0
1E7FF0
1EE3F8
1D80F8
1A007C
1E007E
1E007E
1E003E
1E003E
1E003E
1E003E
1E003E
1E003E
1E003C
1E003C
1E0078
1E00F8
1E00F0
1F01E0
1FFFC0
19FF00
ENDCHAR
STARTCHAR 0063
ENCODING 99
SWIDTH 434 0
DWIDTH 20 0
BBX 18 22 1 0
BITMAP
01FC00
07FF00
070780
0E0180
1C01C0
3803C0
7801C0
780000
780000
780000
780000
F80000
F80000
780000
780000
780000
3C0040
3E0080
1F8100
0FFF00
07FF00
03FC00
ENDCHAR
STARTCHAR 0064
ENCODING 100
SWIDTH 565 0
DWIDTH 26 0
BBX 24 33 1 0
BITMAP
000038
0003F8
0003F8
0000F8
0000F8
0000F8
0000F8
0000F8
0000F8
0000F8
0000F8
00FEF8
03FFF8
0783F8
0E00F8
1C00F8
3800F8
3800F8
7800F8
7800F8
7800F8
7800F8
F800F8
F800F8
F800F8
7800F8
7800F8
7C00F8
3E0178
3F03F8
1FFEF8
0FFCFF
07F8FC
ENDCHAR
STARTCHAR 0065
ENCODING 101
SWIDTH 478 0
DWIDTH 22 0
BBX 18 22 2 0
BITMAP
01F800
0FFE00
0E1E00
1C0F00
380780
7003C0
7003C0
F003C0
FFFFC0
FFFFC0
E00000
F00000
F00000
F00000
F00000
F80000
7C0000
3C0080
3F0100
1FFF00
0FFE00
07FC00
ENDCHAR
STARTCHAR 0066
ENCODING 102
SWIDTH 326 0
DWIDTH 15 0
BBX 19 33 0 0
BITMAP
003F00
00FF80
01C0C0
0381C0
0301E0
0700C0
070000
070000
070000
0F0000
0F0000
7FFC00
7FFC00
0C0000
0F0000
0F0000
0F0000
0F0000
0F0000
0F0000
0F0000
0F0000
0F0000
0F0000
0F0000
0F0000
0F0000
0F0000
0F0000
0F0000
0F8000
3FC000
FFF000
ENDCHAR
STARTCHAR 0067
ENCODING 103
SWIDTH 456 0
DWIDTH 21 0
BBX 24 35 0 -11
BITMAP
00003C
00007E
00FCCF
03FF9F
070F9E
0E0780
1C03C0
3C01E0
3C01E0
3C01E0
3C01E0
3C01E0
3C01E0
3C03C0
1E03C0
0E0780
079F80
03FE00
0C0000
1C0000
380000
3C0000
3FF800
3FFFC0
1FFFF0
07FFF8
1FFFFC
38007C
70003C
F0003C
F00078
F80070
7C01E0
3FFF80
0FFE00
ENDCHAR
STARTCHAR 0068
ENCODING 104
SWIDTH 586 0
DWIDTH 27 0
BBX 25 33 1 0
BITMAP
07000000
7F000000
3F000000
1F000000
0F000000
0F000000
0F000000
0F000000
0F000000
0F000000
0F000000
0F0F8000
0F1FE000
0F7FF000
0FE1F800
0FC0FC00
0F007C00
0F007C00
0F007C00
0F007C00
0F007C00
0F007C00
0F007C00
0F007C00
0F007C00
0F007C00
0F007C00
0F007C00
0F007C00
0F007C00
1F00FC00
3F81FE00
FFE3FF80
ENDCHAR
STARTCHAR 0069
ENCODING 105
SWIDTH 304 0
DWIDTH 14 0
BBX 12 31 1 0
BITMAP
0F00
0F00
0F00
0F00
0000
0000
0000
0000
0000
0300
1F00
7F00
1F00
0F00
0F00
0F00
0F00
0F00
0F00
0F00
0F00
0F00
0F00
0F00
0F00
0F00
0F00
0F00
0F80
3FC0
FFF0
ENDCHAR
STARTCHAR 006A
ENCODING 106
SWIDTH 260 0
DWIDTH 12 0
BBX 13 42 -4 -11
BITMAP
00F0
00F0
00F0
00F0
0000
0000
0000
0000
0000
0018
01F8
07F8
01F8
0078
0078
0078
0078
0078
0078
0078
0078
0078
0078
0078
0078
0078
0078
0078
0078
0078
0078
0078
0078
0078
0078
0078
0078
F870
F870
70E0
3FC0
0F80
ENDCHAR
STARTCHAR 006B
ENCODING 107
SWIDTH 565 0
DWIDTH 26 0
BBX 25 33 1 0
BITMAP
07000000
7F000000
3F000000
1F000000
0F000000
0F000000
0F000000
0F000000
0F000000
0F000000
0F000000
0F03FE00
0F03FE00
0F00F800
0F00E000
0F008000
0F030000
0F060000
0F0C0000
0F1C0000
0F3E0000
0F7F0000
0EDF0000
0D9F0000
0F0F8000
0F078000
0F03C000
0F01E000
0F00F000
0F00F800
1F00FC00
3FC07F00
FFF03F80
ENDCHAR
STARTCHAR 006C
ENCODING 108
SWIDTH 282 0
DWIDTH 13 0
BBX 11 33 1 0
BITMAP
0700
7F00
7F00
1F00
0F00
0F00
0F00
0F00
0F00
0F00
0F00
0F00
0F00
0F00
0F00
0F00
0F00
0F00
0F00
0F00
0F00
0F00
0F00
0F00
0F00
0F00
0F00
0F00
0F00
0F00
1F00
7F80
FFE0
ENDCHAR
STARTCHAR 006D
ENCODING 109
SWIDTH 869 0
DWIDTH 40 0
BBX 39 22 1 0
BITMAP
0307C03E00
1F1FE0FF80
7F3FF1FFC0
1F70FB8FC0
0EC0F707E0
0F007C03E0
0F007C03E0
0F007C03E0
0F007C03E0
0F007C03E0
0F007C03E0
0F007C03E0
0F007C03E0
0F007C03E0
0F007C03E0
0F007C03E0
0F007C03E0
0F007C03E0
0F007C03E0
0F807E03F0
3FC0FF0FF8
FFF3FF8FFE
ENDCHAR
STARTCHAR 006E
ENCODING 110
SWIDTH 586 0
DWIDTH 27 0
BBX 25 22 1 0
BITMAP
0307C000
1F1FE000
7F3FF000
1F60F800
0EC0FC00
0F007C00
0F007C00
0F007C00
0F007C00
0F007C00
0F007C00
0F007C00
0F007C00
0F007C00
0F007C00
0F007C00
0F007C00
0F007C00
0F007C00
1F00FC00
3FC1FF00
FFE3FF80
ENDCHAR
STARTCHAR 006F
ENCODING 111
SWIDTH 521 0
DWIDTH 24 0
BBX 20 23 2 -1
BITMAP
03F800
0FFE00
0F0F00
1C0780
3803C0
7801E0
F001E0
F001F0
F001F0
F001F0
F001F0
F001F0
F001F0
F001F0
F001F0
F801E0
7801E0
3C01C0
3C0380
1E0700
0FFE00
07FE00
006000
ENDCHAR
STARTCHAR 0070
ENCODING 112
SWIDTH 565 0
DWIDTH 26 0
BBX 24 33 1 -11
BITMAP
030F80
1F3FE0
FF7FF0
3FE1F8
1FC0FC
0F007E
0F003F
0F003F
0F003F
0F001F
0F001F
0F001F
0F001F
0F001F
0F003E
0F003E
0F007C
0F0078
0F00F8
0F81F0
0FFFC0
0FFF00
0F0000
0F0000
0F0000
0F0000
0F0000
0F0000
0F0000
1F0000
1F8000
FFF000
FFF000
ENDCHAR
STARTCHAR 0071
ENCODING 113
SWIDTH 565 0
DWIDTH 26 0
BBX 24 33 2 -11
BITMAP
01FC30
07FFF0
0F83F0
0E01F0
1C01F0
7801F0
7801F0
7001F0
F001F0
F001F0
F001F0
F001F0
F001F0
F001F0
F001F0
F801F0
7C0170
7C0270
3F06F0
1FFFF0
0FFDF0
0FF1F0
0001F0
0001F0
0001F0
0001F0
0001F0
0001F0
0001F0
0001F0
0001F8
000FFF
000FFF
ENDCHAR
STARTCHAR 0072
ENCODING 114
SWIDTH 434 0
DWIDTH 20 0
BBX 18 22 1 0
BITMAP
030780
1F0FC0
7F39C0
1F23C0
0F43C0
0E8000
0F0000
0F0000
0F0000
0F0000
0F0000
0F0000
0F0000
0F0000
0F0000
0F0000
0F0000
0F0000
0F0000
0F8000
3FC000
FFF000
ENDCHAR
STARTCHAR 0073
ENCODING 115
SWIDTH 391 0
DWIDTH 18 0
BBX 16 23 1 -1
BITMAP
0783
1FE7
387B
381F
780F
7803
7803
7803
7F00
3FC0
1FF8
07FE
03FF
007F
001F
C00F
F007
F007
F807
D80E
E7FC
E7F8
8000
ENDCHAR
STARTCHAR 0074
ENCODING 116
SWIDTH 326 0
DWIDTH 15 0
BBX 13 29 1 0
BITMAP
0200
0200
0600
0600
0E00
1E00
3E00
7FF8
FFF8
1800
1E00
1E00
1E00
1E00
1E00
1E00
1E00
1E00
1E00
1E00
1E00
1E00
1E00
1E00
1E08
1E18
1FF0
0FE0
07C0
ENDCHAR
STARTCHAR 0075
ENCODING 117
SWIDTH 586 0
DWIDTH 27 0
BBX 24 22 1 0
BITMAP
03000C
1F00FC
FF03FC
3F00FC
1F00FC
0F007C
0F007C
0F007C
0F007C
0F007C
0F007C
0F007C
0F007C
0F007C
0F007C
0F007C
0F00FC
0F00BC
0F817C
07FF7C
07FE7F
03FC7C
ENDCHAR
STARTCHAR 0076
ENCODING 118
SWIDTH 543 0
DWIDTH 25 0
BBX 25 23 0 -1
BITMAP
FFE07F80
FFE07F80
3F003E00
1F001C00
0F001C00
07803800
07803000
07C07000
03C06000
03C06000
03E04000
03E0C000
01F08000
01F18000
00F98000
00FB8000
007B0000
003F0000
003E0000
001E0000
001C0000
001C0000
00080000
ENDCHAR
STARTCHAR 0077
ENCODING 119
SWIDTH 782 0
DWIDTH 36 0
BBX 35 22 0 0
BITMAP
FFE7FE0FE0
FFE7FE0FE0
3F01F807C0
1F00F00780
0F00F00300
0780780600
0780780600
03C07C0400
03C07C0400
03C0BC0800
03E0BE0800
03E0BE1800
01F19F1800
01F19F1800
00FB0FB000
00FB0FB000
0076076000
007E07E000
003C03C000
003C03C000
0018018000
0018018000
ENDCHAR
STARTCHAR 0078
ENCODING 120
SWIDTH 543 0
DWIDTH 25 0
BBX 23 22 1 0
BITMAP
FFC1FE
FFC1FE
3F00F8
1F00F0
0F80E0
07C180
07E300
03F700
01EE00
00FC00
00FC00
007E00
007F00
00EF00
01DF00
038F80
0603C0
0403E0
0C01F0
1801F8
7C03FC
FF0FFE
ENDCHAR
STARTCHAR 0079
ENCODING 121
SWIDTH 543 0
DWIDTH 25 0
BBX 26 33 -1 -11
BITMAP
7FF07FC0
7FF07FC0
1F801F00
0F801E00
07800C00
03C01800
03C01800
03C03000
01E03000
01E02000
01F02000
01F04000
00F04000
00F8C000
00F8C000
007D8000
003B8000
003B0000
003E0000
001E0000
001E0000
000C0000
001C0000
00180000
00380000
00300000
00300000
00600000
F8C00000
F9800000
73800000
7E000000
1C000000
ENDCHAR
STARTCHAR 007A
ENCODING 122
SWIDTH 456 0
DWIDTH 21 0
BBX 19 22 1 0
BITMAP
7FFFE0
7FFFC0
7E01C0
780780
700F00
601F00
603E00
607E00
407C00
00F800
01F800
01F000
03E000
07C000
07C060
078060
0F00E0
1E00C0
3C00C0
7803C0
7FFFC0
FFFFC0
ENDCHAR
STARTCHAR 007B
ENCODING 123
SWIDTH 391 0
DWIDTH 18 0
BBX 15 45 2 -10
BITMAP
0002
00FE
01F0
03C0
0780
0F80
0F80
0F80
0F80
0FC0
0FC0
0FC0
07E0
07E0
03E0
03E0
03E0
03E0
03C0
0780
0F00
1E00
F000
1C00
0F00
0780
03C0
03E0
03E0
03F0
03F0
07F0
07E0
07E0
0FC0
0FC0
0F80
0F80
0F80
0F80
0F80
07C0
03E0
00FC
001E
ENDCHAR
STARTCHAR 007C
ENCODING 124
SWIDTH 369 0
DWIDTH 17 0
BBX 2 43 7 -11
BITMAP
C0
C0
C0
C0
C0
C0
C0
C0
C0
C0
C0
C0
C0
C0
C0
C0
C0
C0
C0
C0
C0
C0
C0
C0
C0
C0
C0
C0
C0
C0
C0
C0
C0
C0
C0
C0
C0
C0
C0
C0
C0
C0
C0
ENDCHAR
STARTCHAR 007D
ENCODING 125
SWIDTH 391 0
DWIDTH 18 0
BBX 16 45 1 -10
BITMAP
7800
3E00
0780
07C0
03C0
03E0
03E0
03E0
03E0
03E0
07E0
07C0
07C0
0FC0
0F80
0F80
0F80
0780
0780
0780
03C0
0078
001F
00F8
01E0
03C0
0780
0780
0780
0780
0780
0780
07C0
07E0
07E0
07E0
03E0
03E0
03E0
03E0
03E0
03C0
0780
0F00
F000
ENDCHAR
STARTCHAR 007E
ENCODING 126
SWIDTH 565 0
DWIDTH 26 0
BBX 22 6 2 11
BITMAP
3FF80C
3FFE18
7FFFF8
40FFF0
801FE0
0001C0
ENDCHAR
STARTCHAR 00A1
ENCODING 161
SWIDTH 239 0
DWIDTH 11 0
BBX 5 32 3 -1
BITMAP
F8
F8
F8
F8
F8
00
00
00
00
00
00
00
20
20
20
20
20
20
20
20
60
60
60
60
70
70
70
70
F0
F0
F0
70
ENDCHAR
STARTCHAR 00A2
ENCODING 162
SWIDTH 434 0
DWIDTH 20 0
BBX 18 31 1 -5
BITMAP
000600
000600
000600
000C00
01FC00
07FF00
079F80
0E1D80
1C19C0
383BC0
7831C0
783000
787000
786000
786000
F8E000
F8C000
78C000
798000
798000
3F0040
3F0080
1F0100
0EFF00
06FF00
06FC00
040000
040000
040000
080000
080000
ENDCHAR
STARTCHAR 00A3
ENCODING 163
SWIDTH 543 0
DWIDTH 25 0
BBX 22 33 1 -1
BITMAP
003F80
00FFE0
01E078
07C03C
07807C
07807C
07807C
078018
078000
07C000
07C000
07C000
07C000
07E000
07E000
7FFFC0
00F000
01F000
01F000
00F000
00F000
00F800
00F000
00F000
007000
007000
7FE004
C1E61C
C0FFF8
C1BFF8
671FF0
7E07E0
080080
ENDCHAR
STARTCHAR 00A5
ENCODING 165
SWIDTH 717 0
DWIDTH 33 0
BBX 31 32 1 0
BITMAP
FFF007FE
7FE003FE
3F8000F8
0F800060
07800060
07C000C0
07E00180
03E00180
03F00300
01F80300
00F80600
00FC0C00
007E0C00
003F1800
003F1000
000FE000
000FC000
0007C000
0003C000
07FFFFC0
07FFFFC0
0003C000
07FFFFC0
07FFFFC0
0001C000
0003C000
0003C000
0003C000
0003C000
0007E000
007FFC00
007FFE00
ENDCHAR
STARTCHAR 00A7
ENCODING 167
SWIDTH 500 0
DWIDTH 23 0
BBX 19 37 2 -4
BITMAP
00C000
07FC00
0FFE00
1E0700
380F80
380F80
380F00
380200
3C0000
3F0000
1FC000
07F000
0FFC00
3FFE00
70FF80
703FC0
F003E0
F001E0
F001E0
F801E0
FE01E0
7F81C0
3FE1C0
1FFF80
07FE00
01FC00
007F00
0007C0
1803C0
3C03C0
3C03C0
3C0380
380380
1C0700
0F1E00
0FFE00
01F000
ENDCHAR
STARTCHAR 00A8
ENCODING 168
SWIDTH 500 0
DWIDTH 23 0
BBX 13 4 5 27
BITMAP
F078
F078
F078
F078
ENDCHAR
STARTCHAR 00A9
ENCODING 169
SWIDTH 804 0
DWIDTH 37 0
BBX 33 34 2 -1
BITMAP
0001800000
001FFC0000
007C0F0000
01E001C000
0600002000
0C00001000
0800001800
1001C00C00
3007F80600
301E1C0600
603C0E0300
60381F0300
40781F0100
C0781E0180
C0F00C0180
C0F0000180
C0F0000180
C0F0000180
C0F8000180
C0F8000180
C0F8000180
407C020100
607E060300
603F1C0300
301FF80600
3007F00600
1001C00C00
0C00001000
0600003000
030000E000
01C001C000
00781F0000
001FFC0000
0001C00000
ENDCHAR
STARTCHAR 00AB
ENCODING 171
SWIDTH 586 0
DWIDTH 27 0
BBX 20 21 3 0
BITMAP
002010
004020
00C060
0180C0
070380
0E0300
1E0700
1C0E00
3C1E00
783C00
F87C00
7C3E00
3C1E00
1E0F00
1E0700
070380
0381C0
0180C0
00C060
004020
002010
ENDCHAR
STARTCHAR 00AE
ENCODING 174
SWIDTH 565 0
DWIDTH 26 0
BBX 20 20 3 13
BITMAP
07FC00
0E0200
180180
2000C0
67FC60
430C20
C30430
830410
830C10
83F010
821C10
830C10
C30C10
C30C30
438420
6FC760
100180
180300
079E00
01F800
ENDCHAR
STARTCHAR 00AF
ENCODING 175
SWIDTH 500 0
DWIDTH 23 0
BBX 13 1 5 28
BITMAP
FFF8
ENDCHAR
STARTCHAR 00B0
ENCODING 176
SWIDTH 369 0
DWIDTH 17 0
BBX 14 15 2 18
BITMAP
0200
0FC0
3FF0
7078
E01C
C00C
C00C
C00C
C00C
E00C
E01C
7038
7078
3FF0
0FC0
ENDCHAR
STARTCHAR 00B2
ENCODING 178
SWIDTH 304 0
DWIDTH 14 0
BBX 12 17 1 15
BITMAP
1F80
73C0
61E0
E1E0
E1E0
01E0
01C0
0380
0300
0700
0600
0400
0810
1830
3030
7FE0
FFE0
ENDCHAR
STARTCHAR 00B3
ENCODING 179
SWIDTH 326 0
DWIDTH 15 0
BBX 11 17 2 15
BITMAP
7FE0
FFC0
FE80
8300
0600
0C00
0E00
1F80
1FC0
03E0
01E0
00E0
C0E0
E0E0
C1E0
6780
1F00
ENDCHAR
STARTCHAR 00B4
ENCODING 180
SWIDTH 500 0
DWIDTH 23 0
BBX 9 8 8 25
BITMAP
0380
0780
0F80
0F80
3E00
3800
6000
8000
ENDCHAR
STARTCHAR 00B6
ENCODING 182
SWIDTH 630 0
DWIDTH 29 0
BBX 26 43 1 -11
BITMAP
00FFFFC0
07FFFFC0
07FC1E00
3FFF1C00
3FFF1C00
7FFF1C00
7FFF1C00
7FFF1C00
FFFF1C00
FFFF1C00
FFFF1C00
FFFF1C00
FFFF1C00
FFFF1C00
7FFF1C00
7FFF1C00
3FFF1C00
1FFF1C00
0FFF1C00
07FF1C00
03FF1C00
007F1C00
00071C00
00071C00
00071C00
00071C00
00071C00
00071C00
00071C00
00071C00
00071C00
00071C00
00071C00
00071C00
00071C00
00071C00
00071C00
00071C00
00071C00
00071C00
00071C00
00071C00
00071C00
ENDCHAR
STARTCHAR 00B7
ENCODING 183
SWIDTH 239 0
DWIDTH 11 0
BBX 5 5 3 14
BITMAP
F8
F8
F8
F8
F8
ENDCHAR
STARTCHAR 00B8
ENCODING 184
SWIDTH 500 0
DWIDTH 23 0
BBX 8 10 9 -9
BITMAP
08
18
10
30
7E
3F
0F
07
0E
FC
ENDCHAR
STARTCHAR 00B9
ENCODING 185
SWIDTH 217 0
DWIDTH 10 0
BBX 8 17 1 15
BITMAP
18
78
18
18
18
18
18
18
18
18
18
18
18
18
18
3C
FF
ENDCHAR
STARTCHAR 00BB
ENCODING 187
SWIDTH 586 0
DWIDTH 27 0
BBX 20 21 4 0
BITMAP
804000
402000
403000
201800
380C00
3C0E00
1E0700
1F0780
0F87C0
0FC7E0
07E3F0
07C3E0
0F87C0
0F0780
1E0700
380C00
300800
201800
403000
402000
804000
ENDCHAR
STARTCHAR 00BC
ENCODING 188
SWIDTH 630 0
DWIDTH 29 0
BBX 27 32 1 0
BITMAP
18000700
78000600
18000C00
18001800
18003000
18003000
18006000
1800C000
1800C000
18008000
18018000
18010000
18030000
18070000
18060000
3C1C3C00
FF183C00
00303800
00703000
00607000
00C06100
00C0C300
01808700
03010720
03010760
0603FFE0
040FFFC0
08000700
18000700
18000700
30000F00
70003FC0
ENDCHAR
STARTCHAR 00BD
ENCODING 189
SWIDTH 630 0
DWIDTH 29 0
BBX 28 32 1 0
BITMAP
18000700
78000600
18000C00
18001800
18003000
18003000
18006000
1800E000
1800C000
18008000
18018000
18010000
18030000
18070000
18060000
3C1C7FC0
FF18C3E0
0030C1E0
0030C1E0
0060C1E0
00C081E0
00C001C0
018003C0
03800380
03000700
06000E00
04001810
08003030
18006020
18005FE0
3000FFE0
7000FFE0
ENDCHAR
STARTCHAR 00BE
ENCODING 190
SWIDTH 695 0
DWIDTH 32 0
BBX 29 32 2 0
BITMAP
7FE000E0
FFC000C0
FE800180
83000300
06000600
0C000600
0E000C00
1F801800
1FC01800
03E03000
01E06000
00E06000
C0E0C000
E0E18000
C1C18000
67820780
3E020780
00060700
000C0600
000C0E00
00180C20
00101860
003030E0
006020E8
004040F8
00C0FFF8
0181FFF0
030000E0
060000E0
060000E0
0C0001E0
080007F0
ENDCHAR
STARTCHAR 00BF
ENCODING 191
SWIDTH 434 0
DWIDTH 20 0
BBX 19 32 1 0
BITMAP
01F800
01F800
01F800
01F800
01F800
000000
000000
000000
000000
004000
002000
003000
003000
007000
007000
03E000
078000
0F0000
1E0000
3C0000
380000
780000
780000
F80000
F800C0
F801C0
7801E0
7800C0
3C00C0
1E0180
0F8F00
07FE00
ENDCHAR
STARTCHAR 00C0
ENCODING 192
SWIDTH 717 0
DWIDTH 33 0
BBX 33 44 0 0
BITMAP
001C000000
001E000000
001F000000
001F000000
001F800000
0007C00000
0001C00000
0000600000
0000100000
0000000000
0000000000
0000800000
0000800000
0000C00000
0001C00000
0003E00000
0003E00000
0003F00000
0006F00000
0006F80000
000E780000
000C780000
001C7C0000
00187C0000
00187E0000
00303E0000
00303E0000
00601F0000
00E01F8000
00C00F8000
00C00FC000
01FFFFC000
01FFFFC000
038001E000
030003E000
030003F000
020001F000
020001F800
040000F800
0C0000F800
1C0000F800
3E0000FC00
7F8003FF00
FF8007FF80
ENDCHAR
STARTCHAR 00C1
ENCODING 193
SWIDTH 717 0
DWIDTH 33 0
BBX 33 43 0 0
BITMAP
00001C0000
00003E0000
00007E0000
0000FC0000
0001F00000
0001C00000
0003000000
0004000000
0000000000
0000000000
0000800000
0000800000
0000C00000
0001C00000
0003E00000
0003E00000
0003F00000
0006F00000
0006F80000
000E780000
000C780000
001C7C0000
00187C0000
00187E0000
00303E0000
00303E0000
00601F0000
00E01F8000
00C00F8000
00C00FC000
01FFFFC000
01FFFFC000
038001E000
030003E000
030003F000
020001F000
020001F800
040000F800
0C0000F800
1C0000F800
3E0000FC00
7F8003FF00
FF8007FF80
ENDCHAR
STARTCHAR 00C2
ENCODING 194
SWIDTH 717 0
DWIDTH 33 0
BBX 33 41 0 0
BITMAP
0003F00000
0007B80000
000F7C0000
000C3E0000
0018060000
0020010000
0000000000
0000000000
0000800000
0000800000
0000C00000
0001C00000
0003E00000
0003E00000
0003F00000
0006F00000
0006F80000
000E780000
000C780000
001C7C0000
00187C0000
00187E0000
00303E0000
00303E0000
00601F0000
00E01F8000
00C00F8000
00C00FC000
01FFFFC000
01FFFFC000
038001E000
030003E000
030003F000
020001F000
020001F800
040000F800
0C0000F800
1C0000F800
3E0000FC00
7F8003FF00
FF8007FF80
ENDCHAR
STARTCHAR 00C3
ENCODING 195
SWIDTH 717 0
DWIDTH 33 0
BBX 33 42 0 0
BITMAP
0006004000
001F804000
003FFF8000
0023FF0000
0040FE0000
00007E0000
0000000000
0000000000
0000000000
0000800000
0000800000
0000C00000
0001C00000
0003E00000
0003E00000
0003F00000
0006F00000
0006F80000
000E780000
000C780000
001C7C0000
00187C0000
00187E0000
00303E0000
00303E0000
00601F0000
00E01F8000
00C00F8000
00C00FC000
01FFFFC000
01FFFFC000
038001E000
030003E000
030003F000
020001F000
020001F800
040000F800
0C0000F800
1C0000F800
3E0000FC00
7F8003FF00
FF8007FF80
ENDCHAR
STARTCHAR 00C4
ENCODING 196
SWIDTH 717 0
DWIDTH 33 0
BBX 33 41 0 0
BITMAP
003E1F0000
003E1F0000
003E1F0000
003E1F0000
0000000000
0000000000
0000000000
0000000000
0000800000
0000800000
0000C00000
0001C00000
0003E00000
0003E00000
0003F00000
0006F00000
0006F80000
000E780000
000C780000
001C7C0000
00187C0000
00187E0000
00303E0000
00303E0000
00601F0000
00E01F8000
00C00F8000
00C00FC000
01FFFFC000
01FFFFC000
038001E000
030003E000
030003F000
020001F000
020001F800
040000F800
0C0000F800
1C0000F800
3E0000FC00
7F8003FF00
FF8007FF80
ENDCHAR
STARTCHAR 00C5
ENCODING 197
SWIDTH 717 0
DWIDTH 33 0
BBX 33 43 0 0
BITMAP
0000800000
0003F00000
0007380000
0006180000
0006180000
0006180000
0007380000
0003F00000
0000C00000
0000000000
0000800000
0000800000
0000C00000
0001C00000
0003E00000
0003E00000
0003F00000
0006F00000
0006F80000
000E780000
000C780000
001C7C0000
00187C0000
00187E0000
00303E0000
00303E0000
00601F0000
00E01F8000
00C00F8000
00C00FC000
01FFFFC000
01FFFFC000
038001E000
030003E000
030003F000
020001F000
020001F800
040000F800
0C0000F800
1C0000F800
3E0000FC00
7F8003FF00
FF8007FF80
ENDCHAR
STARTCHAR 00C6
ENCODING 198
SWIDTH 1108 0
DWIDTH 51 0
BBX 47 32 0 0
BITMAP
00001FFFFFFC
00000FFFFFFC
000003F800FC
000006F8003C
000006F8001C
00000CF8001C
000018F8001C
000018F8000C
000030F8000C
000070F8000C
000060F80304
000040F80300
000040F80700
000080F80700
000180F80F00
000300FFFF00
000600F80F00
000600F80700
000C00F80700
001FFFF80300
001FFFF80300
003000F80306
007000F80006
006000F80006
00C000F80006
01C000F8000E
030000F8001C
030000F8001C
070000F8003C
1F0001F000FC
7FC01FFFFFFC
FFE01FFFFFFC
ENDCHAR
STARTCHAR 00C7
ENCODING 199
SWIDTH 652 0
DWIDTH 30 0
BBX 27 41 2 -9
BITMAP
007FE060
01FFF9E0
03F03CE0
0F800760
0F0003E0
1E0003E0
3C0001E0
3C0000E0
7C0000E0
78000060
78000060
F8000000
F8000000
F0000000
F0000000
F0000000
F0000000
F0000000
F8000000
F8000000
F8000000
F8000000
7C000000
7C000000
7C000020
3E000040
1F000180
0F800300
0FE00600
03F83C00
01FFF800
007FE000
00060000
00060000
000C0000
000D0000
000F8000
00038000
00018000
00010000
001F0000
ENDCHAR
STARTCHAR 00C8
ENCODING 200
SWIDTH 652 0
DWIDTH 30 0
BBX 28 44 1 0
BITMAP
00300000
00780000
007C0000
007C0000
003E0000
001F0000
00070000
00018000
00004000
00000000
00000000
00000000
FFFFFFC0
7FFFFFE0
0E000FE0
078001E0
078001E0
078000E0
078000E0
078000E0
07800060
07800060
07803020
07803000
07807000
07807000
0780F000
07FFF000
0780F000
07807000
07807000
07807000
07803000
07803030
07800030
07800030
07800020
07800060
078000E0
078000E0
0F8003E0
0E000FE0
FFFFFFE0
FFFFFFC0
ENDCHAR
STARTCHAR 00C9
ENCODING 201
SWIDTH 652 0
DWIDTH 30 0
BBX 28 43 1 0
BITMAP
00007000
0000F800
0001F800
0003F000
0007C000
00070000
000C0000
00100000
00000000
00000000
00000000
FFFFFFC0
7FFFFFE0
0E000FE0
078001E0
078001E0
078000E0
078000E0
078000E0
07800060
07800060
07803020
07803000
07807000
07807000
0780F000
07FFF000
0780F000
07807000
07807000
07807000
07803000
07803030
07800030
07800030
07800020
07800060
078000E0
078000E0
0F8003E0
0E000FE0
FFFFFFE0
FFFFFFC0
ENDCHAR
STARTCHAR 00CA
ENCODING 202
SWIDTH 652 0
DWIDTH 30 0
BBX 28 41 1 0
BITMAP
000FC000
001EE000
003DF000
0030F800
00601800
00800400
00000000
00000000
00000000
FFFFFFC0
7FFFFFE0
0E000FE0
078001E0
078001E0
078000E0
078000E0
078000E0
07800060
07800060
07803020
07803000
07807000
07807000
0780F000
07FFF000
0780F000
07807000
07807000
07807000
07803000
07803030
07800030
07800030
07800020
07800060
078000E0
078000E0
0F8003E0
0E000FE0
FFFFFFE0
FFFFFFC0
ENDCHAR
STARTCHAR 00CB
ENCODING 203
SWIDTH 652 0
DWIDTH 30 0
BBX 28 41 1 0
BITMAP
00F87C00
00F87C00
00F87C00
00F87C00
00000000
00000000
00000000
00000000
00000000
FFFFFFC0
7FFFFFE0
0E000FE0
078001E0
078001E0
078000E0
078000E0
078000E0
07800060
07800060
07803020
07803000
07807000
07807000
0780F000
07FFF000
0780F000
07807000
07807000
07807000
07803000
07803030
07800030
07800030
07800020
07800060
078000E0
078000E0
0F8003E0
0E000FE0
FFFFFFE0
FFFFFFC0
ENDCHAR
STARTCHAR 00CC
ENCODING 204
SWIDTH 347 0
DWIDTH 16 0
BBX 14 44 1 0
BITMAP
7000
F800
FC00
FC00
7E00
1F00
0700
0180
0040
0000
0000
0000
FFFC
7FFC
0FC0
0780
0780
0780
0780
0780
0780
0780
0780
0780
0780
0780
0780
0780
0780
0780
0780
0780
0780
0780
0780
0780
0780
0780
0780
0780
0780
0FC0
FFF8
FFFC
ENDCHAR
STARTCHAR 00CD
ENCODING 205
SWIDTH 347 0
DWIDTH 16 0
BBX 14 43 1 0
BITMAP
0060
00F0
01F0
03E0
07C0
0700
0C00
1000
0000
0000
0000
FFFC
7FFC
0FC0
0780
0780
0780
0780
0780
0780
0780
0780
0780
0780
0780
0780
0780
0780
0780
0780
0780
0780
0780
0780
0780
0780
0780
0780
0780
0780
0FC0
FFF8
FFFC
ENDCHAR
STARTCHAR 00CE
ENCODING 206
SWIDTH 347 0
DWIDTH 16 0
BBX 14 41 1 0
BITMAP
0FC0
1CE0
3BF0
30F8
6018
8004
0000
0000
0000
FFFC
7FFC
0FC0
0780
0780
0780
0780
0780
0780
0780
0780
0780
0780
0780
0780
0780
0780
0780
0780
0780
0780
0780
0780
0780
0780
0780
0780
0780
0780
0FC0
FFF8
FFFC
ENDCHAR
STARTCHAR 00CF
ENCODING 207
SWIDTH 347 0
DWIDTH 16 0
BBX 14 41 1 0
BITMAP
F87C
F87C
F87C
F87C
0000
0000
0000
0000
0000
FFFC
7FFC
0FC0
0780
0780
0780
0780
0780
0780
0780
0780
0780
0780
0780
0780
0780
0780
0780
0780
0780
0780
0780
0780
0780
0780
0780
0780
0780
0780
0FC0
FFF8
FFFC
ENDCHAR
STARTCHAR 00D0
ENCODING 208
SWIDTH 717 0
DWIDTH 33 0
BBX 31 32 1 0
BITMAP
FFFF8000
7FFFF800
1E00FE00
0F800FC0
078007E0
078003F0
078001F0
078000F0
078000F8
07800078
0780007C
0780007C
0780007C
0780003E
0780003E
FFFC003E
0780003E
0780003E
0780003C
0780003C
0780007C
0780007C
07800078
078000F8
078000F0
078001F0
078007E0
0F800FC0
0F803F00
1E00FE00
FFFFF800
FFFF8000
ENDCHAR
STARTCHAR 00D1
ENCODING 209
SWIDTH 760 0
DWIDTH 35 0
BBX 33 42 1 0
BITMAP
0006004000
001F804000
003FFF8000
0023FF0000
0040FE0000
00007E0000
0000000000
0000000000
0000000000
0000000000
7F8003FF80
3F8001FF80
1FC0003C00
07F0001800
07F0001000
07F8001000
05FC001000
04FE001000
047F001000
043F001000
041F801000
041F801000
040FC01000
0407E01000
0403F01000
0401FC1000
0400FC1000
0400FE1000
04007F1000
04003F9000
04001FD000
04001FD000
04000FD000
040007F000
040003F000
040001F000
040000F000
0600007000
0E00003000
1F00001000
FFE0001000
FFE0001000
ENDCHAR
STARTCHAR 00D2
ENCODING 210
SWIDTH 739 0
DWIDTH 34 0
BBX 30 45 2 -1
BITMAP
00700000
00780000
007C0000
007C0000
007E0000
001F0000
00070000
00018000
00004000
00000000
00000000
00030000
003FF000
00FFFE00
03E03F00
0F0007C0
0F0003E0
1E0003E0
1E0001F0
3C0001F0
3C0000F8
7C0000F8
780000F8
7800007C
F800007C
F800007C
F800007C
F800007C
F800007C
F800007C
F800007C
F800007C
FC000078
7C000078
7C000078
7C0000F0
3E0000F0
3E0001E0
0F0003E0
0F8007C0
07C00F80
03F01F00
00FFFC00
003FF000
00030000
ENDCHAR
STARTCHAR 00D3
ENCODING 211
SWIDTH 739 0
DWIDTH 34 0
BBX 30 44 2 -1
BITMAP
00007000
0000F800
0001F800
0003F000
0007C000
00070000
000C0000
00100000
00000000
00000000
00030000
003FF000
00FFFE00
03E03F00
0F0007C0
0F0003E0
1E0003E0
1E0001F0
3C0001F0
3C0000F8
7C0000F8
780000F8
7800007C
F800007C
F800007C
F800007C
F800007C
F800007C
F800007C
F800007C
F800007C
FC000078
7C000078
7C000078
7C0000F0
3E0000F0
3E0001E0
0F0003E0
0F8007C0
07C00F80
03F01F00
00FFFC00
003FF000
00030000
ENDCHAR
STARTCHAR 00D4
ENCODING 212
SWIDTH 739 0
DWIDTH 34 0
BBX 30 42 2 -1
BITMAP
000FC000
001EE000
003DF000
0030F800
00601800
00800400
00000000
00000000
00030000
003FF000
00FFFE00
03E03F00
0F0007C0
0F0003E0
1E0003E0
1E0001F0
3C0001F0
3C0000F8
7C0000F8
780000F8
7800007C
F800007C
F800007C
F800007C
F800007C
F800007C
F800007C
F800007C
F800007C
FC000078
7C000078
7C000078
7C0000F0
3E0000F0
3E0001E0
0F0003E0
0F8007C0
07C00F80
03F01F00
00FFFC00
003FF000
00030000
ENDCHAR
STARTCHAR 00D5
ENCODING 213
SWIDTH 739 0
DWIDTH 34 0
BBX 30 43 2 -1
BITMAP
00180100
007E0100
00FFFE00
008FFC00
0103F800
0001F800
00000000
00000000
00000000
00030000
003FF000
00FFFE00
03E03F00
0F0007C0
0F0003E0
1E0003E0
1E0001F0
3C0001F0
3C0000F8
7C0000F8
780000F8
7800007C
F800007C
F800007C
F800007C
F800007C
F800007C
F800007C
F800007C
F800007C
FC000078
7C000078
7C000078
7C0000F0
3E0000F0
3E0001E0
0F0003E0
0F8007C0
07C00F80
03F01F00
00FFFC00
003FF000
00030000
ENDCHAR
STARTCHAR 00D6
ENCODING 214
SWIDTH 739 0
DWIDTH 34 0
BBX 30 42 2 -1
BITMAP
00F87C00
00F87C00
00F87C00
00F87C00
00000000
00000000
00000000
00000000
00030000
003FF000
00FFFE00
03E03F00
0F0007C0
0F0003E0
1E0003E0
1E0001F0
3C0001F0
3C0000F8
7C0000F8
780000F8
7800007C
F800007C
F800007C
F800007C
F800007C
F800007C
F800007C
F800007C
F800007C
FC000078
7C000078
7C000078
7C0000F0
3E0000F0
3E0001E0
0F0003E0
0F8007C0
07C00F80
03F01F00
00FFFC00
003FF000
00030000
ENDCHAR
STARTCHAR 00D7
ENCODING 215
SWIDTH 521 0
DWIDTH 24 0
BBX 16 17 4 6
BITMAP
4002
C007
6007
300C
3818
1C38
07E0
03C0
03C0
07E0
0E70
1C38
3818
300C
6006
C007
4002
ENDCHAR
STARTCHAR 00D8
ENCODING 216
SWIDTH 739 0
DWIDTH 34 0
BBX 34 34 0 -1
BITMAP
0000C00000
000FFE01C0
003FFF8380
00F80FC700
03C001FC00
03C000F800
078000F800
0780007000
0F0000FC00
0F0001FC00
1F0003BE00
1E00073E00
1E000E1E00
3E001C1F00
3E00381F00
3E00701F00
3E00C01F00
3E01801F00
3E03801F00
3E07001F00
3E0E001F00
3E1C001E00
1E38001E00
1F70001E00
1FE0003C00
0FC0003C00
0B80007800
07C000F800
0FE001F000
1DF003E000
38FC07C000
703FFF0000
E00FFC0000
0000C00000
ENDCHAR
STARTCHAR 00D9
ENCODING 217
SWIDTH 760 0
DWIDTH 35 0
BBX 33 45 1 -1
BITMAP
001C000000
003E000000
003F000000
003F000000
001F800000
0007C00000
0001C00000
0000600000
0000100000
0000000000
0000000000
0000000000
FFFC03FF80
7FF803FF80
0FC0007C00
0780001000
0780001000
0780001000
0780001000
0780001000
0780001000
0780001000
0780001000
0780001000
0780001000
0780001000
0780001000
0780001000
0780001000
0780001000
0780001000
0780001000
0780001000
0780003000
0780003000
0780003000
07C0003000
07C0007000
07E000E000
03F001C000
03FC07C000
01FFFF8000
007FFE0000
001FF80000
0001800000
ENDCHAR
STARTCHAR 00DA
ENCODING 218
SWIDTH 760 0
DWIDTH 35 0
BBX 33 44 1 -1
BITMAP
00001C0000
00003C0000
00007C0000
0000FC0000
0001F00000
0001C00000
0003000000
0004000000
0000000000
0000000000
0000000000
FFFC03FF80
7FF803FF80
0FC0007C00
0780001000
0780001000
0780001000
0780001000
0780001000
0780001000
0780001000
0780001000
0780001000
0780001000
0780001000
0780001000
0780001000
0780001000
0780001000
0780001000
0780001000
0780001000
0780003000
0780003000
0780003000
07C0003000
07C0007000
07E000E000
03F001C000
03FC07C000
01FFFF8000
007FFE0000
001FF80000
0001800000
ENDCHAR
STARTCHAR 00DB
ENCODING 219
SWIDTH 760 0
DWIDTH 35 0
BBX 33 42 1 -1
BITMAP
0003F00000
0007380000
000FFC0000
000C3E0000
0018060000
0020010000
0000000000
0000000000
0000000000
FFFC03FF80
7FF803FF80
0FC0007C00
0780001000
0780001000
0780001000
0780001000
0780001000
0780001000
0780001000
0780001000
0780001000
0780001000
0780001000
0780001000
0780001000
0780001000
0780001000
0780001000
0780001000
0780001000
0780003000
0780003000
0780003000
07C0003000
07C0007000
07E000E000
03F001C000
03FC07C000
01FFFF8000
007FFE0000
001FF80000
0001800000
ENDCHAR
STARTCHAR 00DC
ENCODING 220
SWIDTH 760 0
DWIDTH 35 0
BBX 33 42 1 -1
BITMAP
003E1F0000
003E1F0000
003E1F0000
003E1F0000
0000000000
0000000000
0000000000
0000000000
0000000000
FFFC03FF80
7FF803FF80
0FC0007C00
0780001000
0780001000
0780001000
0780001000
0780001000
0780001000
0780001000
0780001000
0780001000
0780001000
0780001000
0780001000
0780001000
0780001000
0780001000
0780001000
0780001000
0780001000
0780003000
0780003000
0780003000
07C0003000
07C0007000
07E000E000
03F001C000
03FC07C000
01FFFF8000
007FFE0000
001FF80000
0001800000
ENDCHAR
STARTCHAR 00DD
ENCODING 221
SWIDTH 717 0
DWIDTH 33 0
BBX 31 43 1 0
BITMAP
00001C00
00003C00
00007C00
0000FC00
0001F000
0001C000
00030000
00040000
00000000
00000000
00000000
FFF007FE
7FE003FE
3F8000F8
0F800060
07800060
07C000C0
07E00180
03E00180
03F00300
01F80700
00F80600
00FC0C00
007E0C00
003E1800
003F3000
000F6000
000FC000
0007C000
0003C000
0003C000
0003C000
0003C000
0003C000
0003C000
0003C000
0003C000
0003C000
0003C000
0003C000
0007E000
007FFC00
007FFE00
ENDCHAR
STARTCHAR 00DE
ENCODING 222
SWIDTH 630 0
DWIDTH 29 0
BBX 26 32 1 0
BITMAP
FFFC0000
7FF80000
0FC00000
07800000
07800000
07800000
07FF8000
07FFF800
0600FE00
07803F00
07801F80
07800FC0
07800FC0
078007C0
078007C0
078007C0
078007C0
07800FC0
07800F80
07800F80
07801F00
07807E00
07FFF800
07FFE000
06000000
07800000
07800000
07800000
07800000
0FC00000
FFF80000
FFFC0000
ENDCHAR
STARTCHAR 00DF
ENCODING 223
SWIDTH 608 0
DWIDTH 28 0
BBX 26 33 1 0
BITMAP
003F0000
01FFC000
03C0E000
0780F000
07007800
0F007800
0F007800
0F007800
0F007000
0F00F000
0F00E000
FF00C000
FF018000
07030000
0F070000
0F0F0000
0F0F8000
0F07E000
0F07F000
0F01F800
0F00FE00
0F00FF00
0F003F80
0F001F80
0F000FC0
0F1807C0
0F3E03C0
0F3E03C0
0F3C0380
0F3C0780
1F1E0F00
7F0FFE00
FF03F800
ENDCHAR
STARTCHAR 00E0
ENCODING 224
SWIDTH 500 0
DWIDTH 23 0
BBX 21 34 2 0
BITMAP
0E0000
1F0000
1F8000
1F8000
0FC000
03C000
00C000
006000
001000
000000
000000
000000
07F000
0FFE00
381E00
300F00
700F80
780780
700780
000780
000780
007F80
03F780
0F8780
1C0780
780780
F00780
F00780
F00780
F00F80
F83F80
F87798
7FE7F0
3F83C0
ENDCHAR
STARTCHAR 00E1
ENCODING 225
SWIDTH 500 0
DWIDTH 23 0
BBX 21 33 2 0
BITMAP
001C00
003E00
007E00
007E00
00F000
00C000
018000
020000
000000
000000
000000
07F000
0FFE00
381E00
300F00
700F80
780780
700780
000780
000780
007F80
03F780
0F8780
1C0780
780780
F00780
F00780
F00780
F00F80
F83F80
F87798
7FE7F0
3F83C0
ENDCHAR
STARTCHAR 00E2
ENCODING 226
SWIDTH 500 0
DWIDTH 23 0
BBX 21 31 2 0
BITMAP
03F800
03F800
0F7E00
0C1E00
080200
100100
000000
000000
000000
07F000
0FFE00
381E00
300F00
700F80
780780
700780
000780
000780
007F80
03F780
0F8780
1C0780
780780
F00780
F00780
F00780
F00F80
F83F80
F87798
7FE7F0
3F83C0
ENDCHAR
STARTCHAR 00E3
ENCODING 227
SWIDTH 500 0
DWIDTH 23 0
BBX 21 32 2 0
BITMAP
060040
0FC040
0FE080
13FF00
20FE00
003E00
000000
000000
000000
000000
07F000
0FFE00
381E00
300F00
700F80
780780
700780
000780
000780
007F80
03F780
0F8780
1C0780
780780
F00780
F00780
F00780
F00F80
F83F80
F87798
7FE7F0
3F83C0
ENDCHAR
STARTCHAR 00E4
ENCODING 228
SWIDTH 500 0
DWIDTH 23 0
BBX 21 31 2 0
BITMAP
1E0F00
1E0F00
1E0F00
1E0F00
000000
000000
000000
000000
000000
07F000
0FFE00
381E00
300F00
700F80
780780
700780
000780
000780
007F80
03F780
0F8780
1C0780
780780
F00780
F00780
F00780
F00F80
F83F80
F87798
7FE7F0
3F83C0
ENDCHAR
STARTCHAR 00E5
ENCODING 229
SWIDTH 500 0
DWIDTH 23 0
BBX 21 33 2 0
BITMAP
004000
03F800
071C00
060C00
060C00
060C00
071C00
03F800
00E000
000000
000000
07F000
0FFE00
381E00
300F00
700F80
780780
700780
000780
000780
007F80
03F780
0F8780
1C0780
780780
F00780
F00780
F00780
F00F80
F83F80
F87798
7FE7F0
3F83C0
ENDCHAR
STARTCHAR 00E6
ENCODING 230
SWIDTH 760 0
DWIDTH 35 0
BBX 31 22 2 0
BITMAP
07F00FC0
0FFE7FE0
181EF0F0
300FE078
700FC03C
7807801E
7007801E
0007801E
0007FFFE
003FFFFE
03F60000
0F878000
1C078000
78078000
70078000
F007C000
F00FE000
F009E004
F839F818
F871FFF8
7FE0FFF0
3F803FE0
ENDCHAR
STARTCHAR 00E7
ENCODING 231
SWIDTH 434 0
DWIDTH 20 0
BBX 18 31 1 -9
BITMAP
01FC00
07FF00
070780
0E0180
1C01C0
3803C0
7801C0
780000
780000
780000
780000
F80000
F80000
780000
780000
780000
3C0000
3E0080
1F8080
0FFF00
07FF00
03FC00
006000
004000
00C000
00D800
00FC00
003E00
001E00
003C00
01F800
ENDCHAR
STARTCHAR 00E8
ENCODING 232
SWIDTH 478 0
DWIDTH 22 0
BBX 18 34 2 0
BITMAP
0E0000
1F0000
1F8000
1F8000
0FC000
03C000
00C000
006000
001000
000000
000000
000000
01F800
0FFE00
0E1E00
1C0F00
380780
7003C0
7003C0
F003C0
FFFFC0
FFFFC0
E00000
F00000
F00000
F00000
F00000
F80000
7C0000
3C0080
3F0100
1FFF00
0FFE00
07FC00
ENDCHAR
STARTCHAR 00E9
ENCODING 233
SWIDTH 478 0
DWIDTH 22 0
BBX 18 33 2 0
BITMAP
001C00
003E00
007E00
007E00
00F000
00C000
018000
020000
000000
000000
000000
01F800
0FFE00
0E1E00
1C0F00
380780
7003C0
7003C0
F003C0
FFFFC0
FFFFC0
E00000
F00000
F00000
F00000
F00000
F80000
7C0000
3C0080
3F0100
1FFF00
0FFE00
07FC00
ENDCHAR
STARTCHAR 00EA
ENCODING 234
SWIDTH 478 0
DWIDTH 22 0
BBX 18 31 2 0
BITMAP
03F800
03F800
0F7E00
0C1E00
080200
100100
000000
000000
000000
01F800
0FFE00
0E1E00
1C0F00
380780
7003C0
7003C0
F003C0
FFFFC0
FFFFC0
E00000
F00000
F00000
F00000
F00000
F80000
7C0000
3C0080
3F0100
1FFF00
0FFE00
07FC00
ENDCHAR
STARTCHAR 00EB
ENCODING 235
SWIDTH 478 0
DWIDTH 22 0
BBX 18 31 2 0
BITMAP
1E0F00
1E0F00
1E0F00
1E0F00
000000
000000
000000
000000
000000
01F800
0FFE00
0E1E00
1C0F00
380780
7003C0
7003C0
F003C0
FFFFC0
FFFFC0
E00000
F00000
F00000
F00000
F00000
F80000
7C0000
3C0080
3F0100
1FFF00
0FFE00
07FC00
ENDCHAR
STARTCHAR 00EC
ENCODING 236
SWIDTH 304 0
DWIDTH 14 0
BBX 13 34 0 0
BITMAP
7000
F800
FC00
FC00
7E00
1F00
0700
0180
0040
0000
0000
0000
0180
0F80
3F80
0F80
0780
0780
0780
0780
0780
0780
0780
0780
0780
0780
0780
0780
0780
0780
0780
07C0
1FE0
7FF8
ENDCHAR
STARTCHAR 00ED
ENCODING 237
SWIDTH 304 0
DWIDTH 14 0
BBX 12 33 1 0
BITMAP
00E0
01E0
03E0
03E0
0F80
0E00
1800
2000
0000
0000
0000
0300
1F00
7F00
1F00
0F00
0F00
0F00
0F00
0F00
0F00
0F00
0F00
0F00
0F00
0F00
0F00
0F00
0F00
0F00
0F80
3FC0
FFF0
ENDCHAR
STARTCHAR 00EE
ENCODING 238
SWIDTH 304 0
DWIDTH 14 0
BBX 14 31 0 0
BITMAP
0FC0
0FC0
3FF0
30F8
6018
8004
0000
0000
0000
0180
0F80
3F80
0F80
0780
0780
0780
0780
0780
0780
0780
0780
0780
0780
0780
0780
0780
0780
0780
07C0
1FE0
7FF8
ENDCHAR
STARTCHAR 00EF
ENCODING 239
SWIDTH 304 0
DWIDTH 14 0
BBX 14 31 0 0
BITMAP
F87C
F87C
F87C
F87C
0000
0000
0000
0000
0000
0180
0F80
3F80
0F80
0780
0780
0780
0780
0780
0780
0780
0780
0780
0780
0780
0780
0780
0780
0780
07C0
1FE0
7FF8
ENDCHAR
STARTCHAR 00F0
ENCODING 240
SWIDTH 521 0
DWIDTH 24 0
BBX 20 33 2 -1
BITMAP
060000
018010
00C070
003FC0
003E00
00F800
07E200
0F0700
0C0300
000380
03FB80
0FFDC0
0F07C0
1C03E0
3C01E0
7801F0
7000F0
F000F0
F000F0
F000F0
F000F0
F000F0
F000F0
F000F0
F000E0
F801E0
7801C0
3C01C0
3C0380
1E0700
0FFE00
07FE00
006000
ENDCHAR
STARTCHAR 00F1
ENCODING 241
SWIDTH 586 0
DWIDTH 27 0
BBX 25 32 1 0
BITMAP
00600400
01FC0400
01FE0800
023FF000
040FE000
0003E000
00000000
00000000
00000000
00000000
0307C000
1F1FE000
7F3FF000
1F60F800
0EC0FC00
0F007C00
0F007C00
0F007C00
0F007C00
0F007C00
0F007C00
0F007C00
0F007C00
0F007C00
0F007C00
0F007C00
0F007C00
0F007C00
0F007C00
1F00FC00
3FC1FF00
FFE3FF80
ENDCHAR
STARTCHAR 00F2
ENCODING 242
SWIDTH 521 0
DWIDTH 24 0
BBX 20 35 2 -1
BITMAP
070000
0F8000
0FC000
0FC000
07C000
01E000
006000
003000
000800
000000
000000
000000
03F800
0FFE00
0F0F00
1C0780
3803C0
7801E0
F001E0
F001F0
F001F0
F001F0
F001F0
F001F0
F001F0
F001F0
F001F0
F801E0
7801E0
3C01C0
3C0380
1E0700
0FFE00
07FE00
006000
ENDCHAR
STARTCHAR 00F3
ENCODING 243
SWIDTH 521 0
DWIDTH 24 0
BBX 20 34 2 -1
BITMAP
000E00
001F00
003F00
003F00
007800
006000
00C000
010000
000000
000000
000000
03F800
0FFE00
0F0F00
1C0780
3803C0
7801E0
F001E0
F001F0
F001F0
F001F0
F001F0
F001F0
F001F0
F001F0
F001F0
F801E0
7801E0
3C01C0
3C0380
1E0700
0FFE00
07FE00
006000
ENDCHAR
STARTCHAR 00F4
ENCODING 244
SWIDTH 521 0
DWIDTH 24 0
BBX 20 32 2 -1
BITMAP
01FC00
01FC00
07BE00
060F00
0C0100
100080
000000
000000
000000
03F800
0FFE00
0F0F00
1C0780
3803C0
7801E0
F001E0
F001F0
F001F0
F001F0
F001F0
F001F0
F001F0
F001F0
F001F0
F801E0
7801E0
3C01C0
3C0380
1E0700
0FFE00
07FE00
006000
ENDCHAR
STARTCHAR 00F5
ENCODING 245
SWIDTH 521 0
DWIDTH 24 0
BBX 20 33 2 -1
BITMAP
030020
0FE020
0FF040
11FF80
107F00
001F00
000000
000000
000000
000000
03F800
0FFE00
0F0F00
1C0780
3803C0
7801E0
F001E0
F001F0
F001F0
F001F0
F001F0
F001F0
F001F0
F001F0
F001F0
F801E0
7801E0
3C01C0
3C0380
1E0700
0FFE00
07FE00
006000
ENDCHAR
STARTCHAR 00F6
ENCODING 246
SWIDTH 521 0
DWIDTH 24 0
BBX 20 32 2 -1
BITMAP
0F0780
0F0780
0F0780
0F0780
000000
000000
000000
000000
000000
03F800
0FFE00
0F0F00
1C0780
3803C0
7801E0
F001E0
F001F0
F001F0
F001F0
F001F0
F001F0
F001F0
F001F0
F001F0
F801E0
7801E0
3C01C0
3C0380
1E0700
0FFE00
07FE00
006000
ENDCHAR
STARTCHAR 00F8
ENCODING 248
SWIDTH 521 0
DWIDTH 24 0
BBX 23 23 1 -1
BITMAP
01FC0E
07FF1C
0787B8
0E03F0
1E01E0
3C01F0
7803F8
7807F8
780EF8
781CF8
7838F8
7870F8
78E0F8
79C0F8
7B80F8
7F00F8
2C00F0
0C00E0
1E01E0
3F03C0
77FF00
C3FF00
003000
ENDCHAR
STARTCHAR 00F9
ENCODING 249
SWIDTH 586 0
DWIDTH 27 0
BBX 24 34 1 0
BITMAP
01C000
03E000
03E000
03E000
01F000
007800
003800
000C00
000200
000000
000000
000000
03000C
1F00FC
FF03FC
3F00FC
1F00FC
0F007C
0F007C
0F007C
0F007C
0F007C
0F007C
0F007C
0F007C
0F007C
0F007C
0F007C
0F00FC
0F00BC
0F817C
07FF7C
07FE7F
03FC7C
ENDCHAR
STARTCHAR 00FA
ENCODING 250
SWIDTH 586 0
DWIDTH 27 0
BBX 24 33 1 0
BITMAP
000380
0007C0
000FC0
000FC0
003E00
003800
002000
004000
000000
000000
000000
03000C
1F00FC
FF03FC
3F00FC
1F00FC
0F007C
0F007C
0F007C
0F007C
0F007C
0F007C
0F007C
0F007C
0F007C
0F007C
0F007C
0F00FC
0F00BC
0F817C
07FF7C
07FE7F
03FC7C
ENDCHAR
STARTCHAR 00FB
ENCODING 251
SWIDTH 586 0
DWIDTH 27 0
BBX 24 31 1 0
BITMAP
007F00
007F00
01EF80
0183C0
0300C0
040020
000000
000000
000000
03000C
1F00FC
FF03FC
3F00FC
1F00FC
0F007C
0F007C
0F007C
0F007C
0F007C
0F007C
0F007C
0F007C
0F007C
0F007C
0F007C
0F00FC
0F00BC
0F817C
07FF7C
07FE7F
03FC7C
ENDCHAR
STARTCHAR 00FC
ENCODING 252
SWIDTH 586 0
DWIDTH 27 0
BBX 24 31 1 0
BITMAP
07C1E0
07C1E0
07C1E0
07C1E0
000000
000000
000000
000000
000000
03000C
1F00FC
FF03FC
3F00FC
1F00FC
0F007C
0F007C
0F007C
0F007C
0F007C
0F007C
0F007C
0F007C
0F007C
0F007C
0F007C
0F00FC
0F00BC
0F817C
07FF7C
07FE7F
03FC7C
ENDCHAR
STARTCHAR 00FD
ENCODING 253
SWIDTH 543 0
DWIDTH 25 0
BBX 26 44 -1 -11
BITMAP
0000E000
0001F000
0003F000
0003F000
000F8000
000E0000
00080000
00100000
00000000
00000000
00000000
7FF07FC0
7FF07FC0
1F801F00
0F801E00
07800C00
03C01800
03C01800
03C03000
01E03000
01E02000
01F02000
01F04000
00F04000
00F8C000
00F8C000
007D8000
003B8000
003B0000
003E0000
001E0000
001E0000
000C0000
001C0000
00180000
00380000
00300000
00300000
00600000
F8C00000
F9800000
73800000
7E000000
1C000000
ENDCHAR
STARTCHAR 00FE
ENCODING 254
SWIDTH 543 0
DWIDTH 25 0
BBX 24 44 0 -11
BITMAP
030000
3F0000
7F0000
1F0000
0F0000
0F0000
0F0000
0F0000
0F0000
0F0000
0F0000
0F0F80
0F3FE0
0F7FF0
0FE1F8
0FC07C
0F007E
0F003F
0F003F
0F003F
0F001F
0F001F
0F001F
0F001F
0F001F
0F003E
0F003E
0F007C
0F0078
0F0078
0F81F0
0FFFC0
0FFF80
0F0000
0F0000
0F0000
0F0000
0F0000
0F0000
0F0000
1F0000
1F8000
FFF000
FFF000
ENDCHAR
STARTCHAR 00FF
ENCODING 255
SWIDTH 543 0
DWIDTH 25 0
BBX 26 42 -1 -11
BITMAP
01F07800
01F07800
01F07800
01F07800
00000000
00000000
00000000
00000000
00000000
7FF07FC0
7FF07FC0
1F801F00
0F801E00
07800C00
03C01800
03C01800
03C03000
01E03000
01E02000
01F02000
01F04000
00F04000
00F8C000
00F8C000
007D8000
003B8000
003B0000
003E0000
001E0000
001E0000
000C0000
001C0000
00180000
00380000
00300000
00300000
00600000
F8C00000
F9800000
73800000
7E000000
1C000000
ENDCHAR
STARTCHAR 0100
ENCODING 256
SWIDTH 717 0
DWIDTH 33 0
BBX 33 40 0 0
BITMAP
003FFF0000
003FFF0000
0000000000
0000000000
0000000000
0000000000
0000000000
0000800000
0000800000
0000C00000
0001C00000
0003E00000
0003E00000
0003F00000
0006F00000
0006F80000
000E780000
000C780000
001C7C0000
00187C0000
00187E0000
00303E0000
00303E0000
00601F0000
00E01F8000
00C00F8000
00C00FC000
01FFFFC000
01FFFFC000
038001E000
030003E000
030003F000
020001F000
020001F800
040000F800
0C0000F800
1C0000F800
3E0000FC00
7F8003FF00
FF8007FF80
ENDCHAR
STARTCHAR 0101
ENCODING 257
SWIDTH 500 0
DWIDTH 23 0
BBX 21 29 2 0
BITMAP
1FFF00
000000
000000
000000
000000
000000
000000
07F000
0FFE00
381E00
300F00
700F80
780780
700780
000780
000780
007F80
03F780
0F8780
1C0780
780780
F00780
F00780
F00780
F00F80
F83F80
F87798
7FE7F0
3F83C0
ENDCHAR
STARTCHAR 0102
ENCODING 258
SWIDTH 717 0
DWIDTH 33 0
BBX 33 41 0 0
BITMAP
0010020000
001E3E0000
000FFC0000
000FFC0000
0003F00000
0000E00000
0000000000
0000000000
0000800000
0000800000
0000C00000
0001C00000
0003E00000
0003E00000
0003F00000
0006F00000
0006F80000
000E780000
000C780000
001C7C0000
00187C0000
00187E0000
00303E0000
00303E0000
00601F0000
00E01F8000
00C00F8000
00C00FC000
01FFFFC000
01FFFFC000
038001E000
030003E000
030003F000
020001F000
020001F800
040000F800
0C0000F800
1C0000F800
3E0000FC00
7F8003FF00
FF8007FF80
ENDCHAR
STARTCHAR 0103
ENCODING 259
SWIDTH 500 0
DWIDTH 23 0
BBX 21 31 2 0
BITMAP
100200
080200
0FFE00
0FFE00
03F800
00F000
000000
000000
000000
07F000
0FFE00
381E00
300F00
700F80
780780
700780
000780
000780
007F80
03F780
0F8780
1C0780
780780
F00780
F00780
F00780
F00F80
F83F80
F87798
7FE7F0
3F83C0
ENDCHAR
STARTCHAR 0104
ENCODING 260
SWIDTH 717 0
DWIDTH 33 0
BBX 33 43 0 -10
BITMAP
0000800000
0000800000
0000C00000
0001C00000
0003E00000
0003E00000
0003F00000
0006F00000
0006F80000
000E780000
000C780000
001C7C0000
00187C0000
00187E0000
00303E0000
00303E0000
00601F0000
00E01F8000
00C00F8000
00C00FC000
01FFFFC000
01FFFFC000
038001E000
030003E000
030003F000
020001F000
020001F800
040000F800
0C0000F800
1C0000F800
3E0000FC00
7F8003FE00
FF8007FF00
0000000300
0000000400
0000000800
0000001800
0000003800
0000003000
0000007800
0000003F80
0000003E00
0000000800
ENDCHAR
STARTCHAR 0105
ENCODING 261
SWIDTH 500 0
DWIDTH 23 0
BBX 20 31 2 -9
BITMAP
07F000
0FFE00
381E00
300F00
700F80
780780
700780
000780
000780
007F80
03F780
0F8780
1C0780
780780
F00780
F00780
F00780
F00F80
F83F80
F87790
7FE7E0
3F83C0
000180
000600
000E00
001C00
001C00
003C00
003C40
003F80
001F00
ENDCHAR
STARTCHAR 0106
ENCODING 262
SWIDTH 652 0
DWIDTH 30 0
BBX 27 43 2 0
BITMAP
00007000
0000F800
0001F800
0003F000
0007C000
00070000
000C0000
00100000
00000000
00000000
00000000
007FE060
01FFF9E0
03F03CE0
0F800760
0F0003E0
1E0003E0
3C0001E0
3C0000E0
7C0000E0
78000060
78000060
F8000000
F8000000
F0000000
F0000000
F0000000
F0000000
F0000000
F8000000
F8000000
F8000000
F8000000
7C000000
7C000000
7C000020
3E000040
1F000180
0F800300
0FE00600
03F83C00
01FFF800
007FE000
ENDCHAR
STARTCHAR 0107
ENCODING 263
SWIDTH 434 0
DWIDTH 20 0
BBX 18 33 1 0
BITMAP
000700
000F80
001F80
001F80
003C00
003000
006000
008000
000000
000000
000000
01FC00
07FF00
070780
0E0180
1C01C0
3803C0
7801C0
780000
780000
780000
780000
F80000
F80000
780000
780000
780000
3C0040
3E0080
1F8100
0FFF00
07FF00
03FC00
ENDCHAR
STARTCHAR 0108
ENCODING 264
SWIDTH 652 0
DWIDTH 30 0
BBX 27 41 2 0
BITMAP
000FC000
001EE000
003DF000
0030F800
00601800
00800400
00000000
00000000
00000000
007FE060
01FFF9E0
03F03CE0
0F800760
0F0003E0
1E0003E0
3C0001E0
3C0000E0
7C0000E0
78000060
78000060
F8000000
F8000000
F0000000
F0000000
F0000000
F0000000
F0000000
F8000000
F8000000
F8000000
F8000000
7C000000
7C000000
7C000020
3E000040
1F000180
0F800300
0FE00600
03F83C00
01FFF800
007FE000
ENDCHAR
STARTCHAR 0109
ENCODING 265
SWIDTH 434 0
DWIDTH 20 0
BBX 18 31 1 0
BITMAP
00FE00
00FE00
03DF00
030780
060080
080040
000000
000000
000000
01FC00
07FF00
070780
0E0180
1C01C0
3803C0
7801C0
780000
780000
780000
780000
F80000
F80000
780000
780000
780000
3C0040
3E0080
1F8100
0FFF00
07FF00
03FC00
ENDCHAR
STARTCHAR 010A
ENCODING 266
SWIDTH 652 0
DWIDTH 30 0
BBX 27 41 2 0
BITMAP
00078000
00078000
00078000
00078000
00000000
00000000
00000000
00000000
00000000
007FE060
01FFF9E0
03F03CE0
0F800760
0F0003E0
1E0003E0
3C0001E0
3C0000E0
7C0000E0
78000060
78000060
F8000000
F8000000
F0000000
F0000000
F0000000
F0000000
F0000000
F8000000
F8000000
F8000000
F8000000
7C000000
7C000000
7C000020
3E000040
1F000180
0F800300
0FE00600
03F83C00
01FFF800
007FE000
ENDCHAR
STARTCHAR 010B
ENCODING 267
SWIDTH 434 0
DWIDTH 20 0
BBX 18 31 1 0
BITMAP
007C00
007C00
007C00
007C00
000000
000000
000000
000000
000000
01FC00
07FF00
070780
0E0180
1C01C0
3803C0
7801C0
780000
780000
780000
780000
F80000
F80000
780000
780000
780000
3C0040
3E0080
1F8100
0FFF00
07FF00
03FC00
ENDCHAR
STARTCHAR 010C
ENCODING 268
SWIDTH 652 0
DWIDTH 30 0
BBX 27 42 2 0
BITMAP
00800400
00601800
003EF000
001DE000
000FC000
000FC000
00000000
00000000
00000000
00000000
007FE060
01FFF9E0
03F03CE0
0F800760
0F0003E0
1E0003E0
3C0001E0
3C0000E0
7C0000E0
78000060
78000060
F8000000
F8000000
F0000000
F0000000
F0000000
F0000000
F0000000
F8000000
F8000000
F8000000
F8000000
7C000000
7C000000
7C000020
3E000040
1F000180
0F800300
0FE00600
03F83C00
01FFF800
007FE000
ENDCHAR
STARTCHAR 010D
ENCODING 269
SWIDTH 434 0
DWIDTH 20 0
BBX 18 32 1 0
BITMAP
080040
060080
07C100
01EF00
00FE00
00FE00
000000
000000
000000
000000
01FC00
07FF00
070780
0E0180
1C01C0
3803C0
7801C0
780000
780000
780000
780000
F80000
F80000
780000
780000
780000
3C0040
3E0080
1F8100
0FFF00
07FF00
03FC00
ENDCHAR
STARTCHAR 010E
ENCODING 270
SWIDTH 717 0
DWIDTH 33 0
BBX 31 42 1 0
BITMAP
00400200
00300C00
001F7800
000EF000
0007E000
0007E000
00000000
00000000
00000000
00000000
FFFF8000
7FFFF800
1E00FE00
0F800FC0
078007E0
078003F0
078001F0
078000F0
078000F8
07800078
0780007C
0780007C
0780007C
0780003E
0780003E
0780003E
0780003E
0780003E
0780003C
0780003C
0780007C
0780007C
07800078
078000F8
078000F0
078001F0
078007E0
0F800FC0
0F803F00
1E00FE00
FFFFF800
FFFF8000
ENDCHAR
STARTCHAR 010F
ENCODING 271
SWIDTH 586 0
DWIDTH 27 0
BBX 29 33 1 0
BITMAP
00003860
0003F8F0
0003F9F8
0000F9F8
0000F868
0000F810
0000F810
0000F830
0000F820
0000F880
0000F800
00FEF800
03FFF800
0783F800
0E00F800
1C00F800
3800F800
3800F800
7800F800
7800F800
7800F800
7800F800
F800F800
F800F800
F800F800
7800F800
7800F800
7C00F800
3E017800
3F03F800
1FFEF800
0FFCFF00
07F8FC00
ENDCHAR
STARTCHAR 0110
ENCODING 272
SWIDTH 717 0
DWIDTH 33 0
BBX 31 32 1 0
BITMAP
FFFF8000
7FFFF800
1E00FE00
0F800FC0
078007E0
078003F0
078001F0
078000F0
078000F8
07800078
0780007C
0780007C
0780007C
0780003E
0780003E
FFFC003E
0780003E
0780003E
0780003C
0780003C
0780007C
0780007C
07800078
078000F8
078000F0
078001F0
078007E0
0F800FC0
0F803F00
1E00FE00
FFFFF800
FFFF8000
ENDCHAR
STARTCHAR 0111
ENCODING 273
SWIDTH 565 0
DWIDTH 26 0
BBX 24 33 1 0
BITMAP
000038
0003F8
0003F8
0000F8
0000F8
0000F8
003FFF
003FFF
000078
0000F8
0000F8
00FEF8
03FFF8
0783F8
0E00F8
1C00F8
3800F8
3800F8
7800F8
7800F8
7800F8
7800F8
F800F8
F800F8
F800F8
7800F8
7800F8
7C00F8
3E0178
3F03F8
1FFEF8
0FFCFF
07F8FC
ENDCHAR
STARTCHAR 0112
ENCODING 274
SWIDTH 652 0
DWIDTH 30 0
BBX 28 40 1 0
BITMAP
00FFFC00
00FFFC00
00000000
00000000
00000000
00000000
00000000
00000000
FFFFFFC0
7FFFFFE0
0E000FE0
078001E0
078001E0
078000E0
078000E0
078000E0
07800060
07800060
07803020
07803000
07807000
07807000
0780F000
07FFF000
0780F000
07807000
07807000
07807000
07803000
07803030
07800030
07800030
07800020
07800060
078000E0
078000E0
0F8003E0
0E000FE0
FFFFFFE0
FFFFFFC0
ENDCHAR
STARTCHAR 0113
ENCODING 275
SWIDTH 478 0
DWIDTH 22 0
BBX 18 29 2 0
BITMAP
1FFF00
000000
000000
000000
000000
000000
000000
01F800
0FFE00
0E1E00
1C0F00
380780
7003C0
7003C0
F003C0
FFFFC0
FFFFC0
E00000
F00000
F00000
F00000
F00000
F80000
7C0000
3C0080
3F0100
1FFF00
0FFE00
07FC00
ENDCHAR
STARTCHAR 0114
ENCODING 276
SWIDTH 652 0
DWIDTH 30 0
BBX 28 41 1 0
BITMAP
00400800
0078F800
003FF000
003FF000
000FC000
00038000
00000000
00000000
00000000
FFFFFFC0
7FFFFFE0
0E000FE0
078001E0
078001E0
078000E0
078000E0
078000E0
07800060
07800060
07803020
07803000
07807000
07807000
0780F000
07FFF000
0780F000
07807000
07807000
07807000
07803000
07803030
07800030
07800030
07800020
07800060
078000E0
078000E0
0F8003E0
0E000FE0
FFFFFFE0
FFFFFFC0
ENDCHAR
STARTCHAR 0115
ENCODING 277
SWIDTH 478 0
DWIDTH 22 0
BBX 18 31 2 0
BITMAP
100200
080200
0FFE00
0FFE00
03F800
00F000
000000
000000
000000
01F800
0FFE00
0E1E00
1C0F00
380780
7003C0
7003C0
F003C0
FFFFC0
FFFFC0
E00000
F00000
F00000
F00000
F00000
F80000
7C0000
3C0080
3F0100
1FFF00
0FFE00
07FC00
ENDCHAR
STARTCHAR 0116
ENCODING 278
SWIDTH 652 0
DWIDTH 30 0
BBX 28 41 1 0
BITMAP
00078000
00078000
00078000
00078000
00000000
00000000
00000000
00000000
00000000
FFFFFFC0
7FFFFFE0
0E000FE0
078001E0
078001E0
078000E0
078000E0
078000E0
07800060
07800060
07803020
07803000
07807000
07807000
0780F000
07FFF000
0780F000
07807000
07807000
07807000
07803000
07803030
07800030
07800030
07800020
07800060
078000E0
078000E0
0F8003E0
0E000FE0
FFFFFFE0
FFFFFFC0
ENDCHAR
STARTCHAR 0117
ENCODING 279
SWIDTH 478 0
DWIDTH 22 0
BBX 18 31 2 0
BITMAP
01F000
01F000
01F000
01F000
000000
000000
000000
000000
000000
01F800
0FFE00
0E1E00
1C0F00
380780
7003C0
7003C0
F003C0
FFFFC0
FFFFC0
E00000
F00000
F00000
F00000
F00000
F80000
7C0000
3C0080
3F0100
1FFF00
0FFE00
07FC00
ENDCHAR
STARTCHAR 0118
ENCODING 280
SWIDTH 652 0
DWIDTH 30 0
BBX 28 42 1 -10
BITMAP
FFFFFFC0
7FFFFFE0
0E000FE0
078001E0
078001E0
078000E0
078000E0
078000E0
07800060
07800060
07803020
07803000
07807000
07807000
0780F000
07FFF000
0780F000
07807000
07807000
07807000
07803000
07803030
07800030
07800020
07800020
07800060
078000E0
078000E0
0F8003E0
0E000FC0
FFFFFFC0
FFFFFFC0
000001C0
00000300
00000E00
00001C00
00001800
00003800
00003C00
00003FC0
00001F80
00000600
ENDCHAR
STARTCHAR 0119
ENCODING 281
SWIDTH 478 0
DWIDTH 22 0
BBX 18 31 2 -9
BITMAP
01F800
0FFE00
0E1E00
1C0F00
380780
7003C0
7003C0
F003C0
FFFFC0
FFFFC0
E00000
F00000
F00000
F00000
F00000
F80000
7C0040
3C0080
3F0180
1FFF00
0FFE00
07FC00
003000
00E000
01C000
03C000
038000
038000
038000
03F800
01F000
ENDCHAR
STARTCHAR 011A
ENCODING 282
SWIDTH 652 0
DWIDTH 30 0
BBX 28 42 1 0
BITMAP
00800400
00601800
003FF000
001CE000
000FC000
000FC000
00000000
00000000
00000000
00000000
FFFFFFC0
7FFFFFE0
0E000FE0
078001E0
078001E0
078000E0
078000E0
078000E0
07800060
07800060
07803020
07803000
07807000
07807000
0780F000
07FFF000
0780F000
07807000
07807000
07807000
07803000
07803030
07800030
07800030
07800020
07800060
078000E0
078000E0
0F8003E0
0E000FE0
FFFFFFE0
FFFFFFC0
ENDCHAR
STARTCHAR 011B
ENCODING 283
SWIDTH 478 0
DWIDTH 22 0
BBX 18 32 2 0
BITMAP
100100
080200
0F0600
07BC00
03F800
03F800
000000
000000
000000
000000
01F800
0FFE00
0E1E00
1C0F00
380780
7003C0
7003C0
F003C0
FFFFC0
FFFFC0
E00000
F00000
F00000
F00000
F00000
F80000
7C0000
3C0080
3F0100
1FFF00
0FFE00
07FC00
ENDCHAR
STARTCHAR 011C
ENCODING 284
SWIDTH 760 0
DWIDTH 35 0
BBX 32 41 2 0
BITMAP
0007E000
000E7000
001FF800
00187C00
00300C00
00400200
00000000
00000000
00020000
003FF020
00FFFCE0
03F01F60
0F8003E0
0F0001E0
1E0001E0
1E0000E0
3C0000E0
3C000060
78000060
78000020
F8000000
F8000000
F8000000
F8000000
F8000000
F8001FFF
F8001FFF
F80003F8
F80001F0
F80000F0
F80000F0
7C0000F0
7C0000F0
3E0000F0
3E0000F0
0F800070
0FC000F0
07E003F0
03FC1FF0
01FFFE30
003FF810
ENDCHAR
STARTCHAR 011D
ENCODING 285
SWIDTH 456 0
DWIDTH 21 0
BBX 24 42 0 -11
BITMAP
01FC00
01FC00
03BF00
020F80
040180
080080
000000
00003C
00007E
00FCCF
03FF9F
070F9E
0E0780
1C03C0
3C01E0
3C01E0
3C01E0
3C01E0
3C01E0
3C01E0
3C03C0
1E03C0
0E0780
079F80
03FE00
0C0000
1C0000
380000
3C0000
3FF800
3FFFC0
1FFFF0
07FFF8
1FFFFC
38007C
70003C
F0003C
F00078
F80070
7C01E0
3FFF80
0FFE00
ENDCHAR
STARTCHAR 011E
ENCODING 286
SWIDTH 760 0
DWIDTH 35 0
BBX 32 41 2 0
BITMAP
00200400
003C7C00
001FF800
001FF800
0007E000
0001C000
00000000
00000000
00020000
003FF020
00FFFCE0
03F01F60
0F8003E0
0F0001E0
1E0001E0
1E0000E0
3C0000E0
3C000060
78000060
78000020
F8000000
F8000000
F8000000
F8000000
F8000000
F8001FFF
F8001FFF
F80003F8
F80001F0
F80000F0
F80000F0
7C0000F0
7C0000F0
3E0000F0
3E0000F0
0F800070
0FC000F0
07E003F0
03FC1FF0
01FFFE30
003FF810
ENDCHAR
STARTCHAR 011F
ENCODING 287
SWIDTH 456 0
DWIDTH 21 0
BBX 24 42 0 -11
BITMAP
040080
040180
03FF00
03FF00
01FC00
007800
000000
00003C
00007E
00FCCF
03FF9F
070F9E
0E0780
1C03C0
3C01E0
3C01E0
3C01E0
3C01E0
3C01E0
3C01E0
3C03C0
1E03C0
0E0780
079F80
03FE00
0C0000
1C0000
380000
3C0000
3FF800
3FFFC0
1FFFF0
07FFF8
1FFFFC
38007C
70003C
F0003C
F00078
F80070
7C01E0
3FFF80
0FFE00
ENDCHAR
STARTCHAR 0120
ENCODING 288
SWIDTH 760 0
DWIDTH 35 0
BBX 32 41 2 0
BITMAP
0003C000
0003C000
0003C000
0003C000
00000000
00000000
00000000
00000000
00020000
003FF020
00FFFCE0
03F01F60
0F8003E0
0F0001E0
1E0001E0
1E0000E0
3C0000E0
3C000060
78000060
78000020
F8000000
F8000000
F8000000
F8000000
F8000000
F8001FFF
F8001FFF
F80003F8
F80001F0
F80000F0
F80000F0
7C0000F0
7C0000F0
3E0000F0
3E0000F0
0F800070
0FC000F0
07E003F0
03FC1FF0
01FFFE30
003FF810
ENDCHAR
STARTCHAR 0121
ENCODING 289
SWIDTH 456 0
DWIDTH 21 0
BBX 24 42 0 -11
BITMAP
00F800
00F800
00F800
00F800
000000
000000
000000
00003C
00007E
00FCCF
03FF9F
070F9E
0E0780
1C03C0
3C01E0
3C01E0
3C01E0
3C01E0
3C01E0
3C01E0
3C03C0
1E03C0
0E0780
079F80
03FE00
0C0000
1C0000
380000
3C0000
3FF800
3FFFC0
1FFFF0
07FFF8
1FFFFC
38007C
70003C
F0003C
F00078
F80070
7C01E0
3FFF80
0FFE00
ENDCHAR
STARTCHAR 0122
ENCODING 290
SWIDTH 760 0
DWIDTH 35 0
BBX 32 45 2 -12
BITMAP
00020000
003FF020
00FFFCE0
03F01F60
0F8003E0
0F0001E0
1E0001E0
1E0000E0
3C0000E0
3C000060
78000060
78000020
F8000000
F8000000
F8000000
F8000000
F8000000
F8001FFF
F8001FFF
F80003F8
F80001F0
F80000F0
F80000F0
7C0000F0
7C0000F0
3E0000F0
3E0000F0
0F800070
0FC000F0
07E003F0
03FC1FF0
01FFFE30
003FF810
00000000
00000000
00010000
0003C000
0007E000
0007E000
00016000
0000C000
0000C000
00018000
00010000
00020000
ENDCHAR
STARTCHAR 0123
ENCODING 291
SWIDTH 456 0
DWIDTH 21 0
BBX 24 47 0 -11
BITMAP
001000
003000
006000
006000
00D800
00DE00
00FE00
00FE00
007C00
001800
000000
000000
00003C
00007E
00FCCF
03FF9F
070F9E
0E0780
1C03C0
3C01E0
3C01E0
3C01E0
3C01E0
3C01E0
3C01E0
3C03C0
1E03C0
0E0780
079F80
03FE00
0C0000
1C0000
380000
3C0000
3FF800
3FFFC0
1FFFF0
07FFF8
1FFFFC
38007C
70003C
F0003C
F00078
F80070
7C01E0
3FFF80
0FFE00
ENDCHAR
STARTCHAR 0124
ENCODING 292
SWIDTH 760 0
DWIDTH 35 0
BBX 33 41 1 0
BITMAP
0003F00000
0007380000
000FFC0000
000C3E0000
0018060000
0020010000
0000000000
0000000000
0000000000
FFFC0FFF80
7FF807FF80
1FC001F800
0F8000F000
078000F000
078000F000
078000F000
078000F000
078000F000
078000F000
078000F000
078000F000
078000F000
078000F000
078000F000
07FFFFF000
0600003000
078000F000
078000F000
078000F000
078000F000
078000F000
078000F000
078000F000
078000F000
078000F000
078000F000
0F8000F000
0F8000F000
1FC001F800
FFF80FFF00
FFFC0FFF80
ENDCHAR
STARTCHAR 0125
ENCODING 293
SWIDTH 586 0
DWIDTH 27 0
BBX 26 41 0 0
BITMAP
0FC00000
1CE00000
3FF00000
30F80000
60180000
80040000
00000000
00000000
03800000
3F800000
1F800000
0F800000
07800000
07800000
07800000
07800000
07800000
07800000
07800000
0787C000
078FF000
07BFF800
07F0FC00
07E07E00
07803E00
07803E00
07803E00
07803E00
07803E00
07803E00
07803E00
07803E00
07803E00
07803E00
07803E00
07803E00
07803E00
07803E00
0F807E00
1FC0FF00
7FF1FFC0
ENDCHAR
STARTCHAR 0126
ENCODING 294
SWIDTH 760 0
DWIDTH 35 0
BBX 33 32 1 0
BITMAP
FFFC0FFF80
7FF807FF80
1FC001F800
0F8000F000
078000F000
078000F000
078000F000
FFFFFFFF80
FFFFFFFF80
078000F000
078000F000
078000F000
078000F000
078000F000
078000F000
07FFFFF000
0600003000
078000F000
078000F000
078000F000
078000F000
078000F000
078000F000
078000F000
078000F000
078000F000
078000F000
0F8000F000
0F8000F000
1FC001F800
FFF80FFF00
FFFC0FFF80
ENDCHAR
STARTCHAR 0127
ENCODING 295
SWIDTH 586 0
DWIDTH 27 0
BBX 25 33 1 0
BITMAP
07000000
7F000000
3F000000
1F000000
0F000000
0F000000
FFFC0000
FFFC0000
07000000
0F000000
0F000000
0F0F8000
0F1FE000
0F7FF000
0FE1F800
0FC0FC00
0F007C00
0F007C00
0F007C00
0F007C00
0F007C00
0F007C00
0F007C00
0F007C00
0F007C00
0F007C00
0F007C00
0F007C00
0F007C00
0F007C00
1F00FC00
3F81FE00
FFE3FF80
ENDCHAR
STARTCHAR 0128
ENCODING 296
SWIDTH 347 0
DWIDTH 16 0
BBX 17 42 0 0
BITMAP
0C0080
3F0080
7FFF00
47FE00
83FC00
00FC00
000000
000000
000000
000000
7FFE00
3FFE00
07E000
03C000
03C000
03C000
03C000
03C000
03C000
03C000
03C000
03C000
03C000
03C000
03C000
03C000
03C000
03C000
03C000
03C000
03C000
03C000
03C000
03C000
03C000
03C000
03C000
03C000
03C000
07E000
7FFC00
7FFE00
ENDCHAR
STARTCHAR 0129
ENCODING 297
SWIDTH 304 0
DWIDTH 14 0
BBX 17 32 -1 0
BITMAP
0C0080
3F0080
3F8100
47FE00
81FC00
00FC00
000000
000000
000000
000000
00C000
07C000
1FC000
07C000
03C000
03C000
03C000
03C000
03C000
03C000
03C000
03C000
03C000
03C000
03C000
03C000
03C000
03C000
03C000
03E000
0FF000
3FFC00
ENDCHAR
STARTCHAR 012A
ENCODING 298
SWIDTH 347 0
DWIDTH 16 0
BBX 14 40 1 0
BITMAP
FFFC
FFFC
0000
0000
0000
0000
0000
0000
FFFC
7FFC
0FC0
0780
0780
0780
0780
0780
0780
0780
0780
0780
0780
0780
0780
0780
0780
0780
0780
0780
0780
0780
0780
0780
0780
0780
0780
0780
0780
0FC0
FFF8
FFFC
ENDCHAR
STARTCHAR 012B
ENCODING 299
SWIDTH 304 0
DWIDTH 14 0
BBX 14 29 0 0
BITMAP
FFFC
0000
0000
0000
0000
0000
0000
0180
0F80
3F80
0F80
0780
0780
0780
0780
0780
0780
0780
0780
0780
0780
0780
0780
0780
0780
0780
07C0
1FE0
7FF8
ENDCHAR
STARTCHAR 012C
ENCODING 300
SWIDTH 347 0
DWIDTH 16 0
BBX 14 41 1 0
BITMAP
4008
78F8
3FF0
3FF0
0FC0
0780
0000
0000
0000
FFFC
7FFC
0FC0
0780
0780
0780
0780
0780
0780
0780
0780
0780
0780
0780
0780
0780
0780
0780
0780
0780
0780
0780
0780
0780
0780
0780
0780
0780
0780
0FC0
FFF8
FFFC
ENDCHAR
STARTCHAR 012D
ENCODING 301
SWIDTH 304 0
DWIDTH 14 0
BBX 12 31 1 0
BITMAP
8010
C030
7FE0
7FE0
1F80
0700
0000
0000
0000
0300
1F00
7F00
1F00
0F00
0F00
0F00
0F00
0F00
0F00
0F00
0F00
0F00
0F00
0F00
0F00
0F00
0F00
0F00
0F80
3FC0
FFF0
ENDCHAR
STARTCHAR 012E
ENCODING 302
SWIDTH 347 0
DWIDTH 16 0
BBX 14 42 1 -10
BITMAP
FFFC
7FFC
0FC0
0780
0780
0780
0780
0780
0780
0780
0780
0780
0780
0780
0780
0780
0780
0780
0780
0780
0780
0780
0780
0780
0780
0780
0780
0780
0780
0FC0
FFF8
FFFC
0018
0060
00C0
0180
0380
0380
0780
03FC
03F8
0040
ENDCHAR
STARTCHAR 012F
ENCODING 303
SWIDTH 304 0
DWIDTH 14 0
BBX 12 41 1 -10
BITMAP
0F00
0F00
0F00
0F00
0000
0000
0000
0000
0000
0300
1F00
7F00
1F00
0F00
0F00
0F00
0F00
0F00
0F00
0F00
0F00
0F00
0F00
0F00
0F00
0F00
0F00
0F00
0F80
3FC0
FFF0
0060
0180
0300
0600
0600
0600
0E00
07F0
07E0
0100
ENDCHAR
STARTCHAR 0130
ENCODING 304
SWIDTH 347 0
DWIDTH 16 0
BBX 14 41 1 0
BITMAP
0780
0780
0780
0780
0000
0000
0000
0000
0000
FFFC
7FFC
0FC0
0780
0780
0780
0780
0780
0780
0780
0780
0780
0780
0780
0780
0780
0780
0780
0780
0780
0780
0780
0780
0780
0780
0780
0780
0780
0780
0FC0
FFF8
FFFC
ENDCHAR
STARTCHAR 0131
ENCODING 305
SWIDTH 304 0
DWIDTH 14 0
BBX 12 22 1 0
BITMAP
0300
1F00
7F00
1F00
0F00
0F00
0F00
0F00
0F00
0F00
0F00
0F00
0F00
0F00
0F00
0F00
0F00
0F00
0F00
0F80
3FC0
FFF0
ENDCHAR
STARTCHAR 0132
ENCODING 306
SWIDTH 891 0
DWIDTH 41 0
BBX 39 33 1 -1
BITMAP
FFFC003FFE
7FFC001FFE
0FC00007F0
07800003E0
07800003E0
07800003E0
07800003E0
07800003E0
07800003E0
07800003E0
07800003E0
07800003E0
07800003E0
07800003E0
07800003E0
07800003E0
07800003E0
07800003E0
07800003E0
07800003E0
07800003E0
07800003E0
07800003E0
07806003E0
0780F003E0
0780F003E0
0780E003C0
0780E00780
0780F00F80
0FC0780F00
FFF83FFE00
FFFC0FF800
000000C000
ENDCHAR
STARTCHAR 0133
ENCODING 307
SWIDTH 565 0
DWIDTH 26 0
BBX 22 42 1 -11
BITMAP
0F00F8
0F00F8
0F00F8
0F00F8
000000
000000
000000
000000
000000
03000C
1F00FC
7F03FC
1F00FC
0F007C
0F007C
0F007C
0F007C
0F007C
0F007C
0F007C
0F007C
0F007C
0F007C
0F007C
0F007C
0F007C
0F007C
0F007C
0F807C
3FC07C
FFF07C
00007C
00007C
00007C
00007C
00007C
00007C
007C78
007C78
0038F0
001FE0
000780
ENDCHAR
STARTCHAR 0134
ENCODING 308
SWIDTH 565 0
DWIDTH 26 0
BBX 24 42 1 -1
BITMAP
0003F0
000738
000FFC
000C3E
001806
002001
000000
000000
000000
003FFF
001FFF
0003F0
0001E0
0001E0
0001E0
0001E0
0001E0
0001E0
0001E0
0001E0
0001E0
0001E0
0001E0
0001E0
0001E0
0001E0
0001E0
0001E0
0001E0
0001E0
0001E0
0001E0
3001E0
F801E0
F801E0
F001C0
F00380
780780
380F00
1FFF00
07FC00
00C000
ENDCHAR
STARTCHAR 0135
ENCODING 309
SWIDTH 260 0
DWIDTH 12 0
BBX 18 42 -4 -11
BITMAP
00FC00
00FC00
03FF00
030F80
060180
080040
000000
000000
000000
001800
01F800
07F800
01F800
007800
007800
007800
007800
007800
007800
007800
007800
007800
007800
007800
007800
007800
007800
007800
007800
007800
007800
007800
007800
007800
007800
007800
007800
F87000
F87000
70E000
3FC000
0F8000
ENDCHAR
STARTCHAR 0136
ENCODING 310
SWIDTH 717 0
DWIDTH 33 0
BBX 32 44 1 -12
BITMAP
FFF81FFC
7FF80FFC
1F8003F0
0F000380
0F000700
0F000E00
0F001C00
0F003800
0F007000
0F00E000
0F00C000
0F018000
0F030000
0F078000
0F0F8000
0F3BE000
0F33F000
0E61F000
0EC0F800
0F80FC00
0F00FC00
0F007E00
0F007F00
0F003F80
0F001F80
0F001FC0
0F0007F0
0F0007F0
0F0003F0
1F8001F8
FFF000FE
FFF800FF
00000000
00000000
00008000
0001E000
0003F000
0003F000
0000B000
00006000
00006000
0000C000
00008000
00010000
ENDCHAR
STARTCHAR 0137
ENCODING 311
SWIDTH 565 0
DWIDTH 26 0
BBX 25 45 1 -12
BITMAP
07000000
7F000000
3F000000
1F000000
0F000000
0F000000
0F000000
0F000000
0F000000
0F000000
0F000000
0F03FE00
0F03FE00
0F00F800
0F00E000
0F008000
0F030000
0F060000
0F0C0000
0F1C0000
0F3E0000
0F7F0000
0EDF0000
0D9F0000
0F0F8000
0F078000
0F03C000
0F01E000
0F00F000
0F00F800
1F00FC00
3FC07F00
FFF03F80
00000000
00000000
00060000
000F0000
001F8000
001F8000
00068000
00010000
00010000
00030000
00020000
00080000
ENDCHAR
STARTCHAR 0138
ENCODING 312
SWIDTH 586 0
DWIDTH 27 0
BBX 25 22 1 0
BITMAP
0303FE00
1F03FE00
7F00F800
1F00E000
0F008000
0F030000
0F060000
0F0C0000
0F1C0000
0F3E0000
0F7F0000
0EDF0000
0D9F0000
0F0F8000
0F078000
0F03C000
0F01E000
0F00F000
0F00F800
1F00FC00
3FC07F00
FFF03F80
ENDCHAR
STARTCHAR 0139
ENCODING 313
SWIDTH 630 0
DWIDTH 29 0
BBX 28 43 1 0
BITMAP
00300000
00780000
00F80000
01F00000
03E00000
03800000
06000000
08000000
00000000
00000000
00000000
FFFC0000
7FF80000
0FC00000
07800000
07800000
07800000
07800000
07800000
07800000
07800000
07800000
07800000
07800000
07800000
07800000
07800000
07800000
07800000
07800000
07800000
07800000
07800030
07800030
07800060
07800060
07800060
078000E0
078001E0
0F8003E0
0E000FE0
FFFFFFC0
FFFFFFC0
ENDCHAR
STARTCHAR 013A
ENCODING 314
SWIDTH 282 0
DWIDTH 13 0
BBX 11 43 1 0
BITMAP
00E0
01E0
03E0
07E0
0F80
0E00
1800
2000
0000
0000
0700
7F00
7F00
1F00
0F00
0F00
0F00
0F00
0F00
0F00
0F00
0F00
0F00
0F00
0F00
0F00
0F00
0F00
0F00
0F00
0F00
0F00
0F00
0F00
0F00
0F00
0F00
0F00
0F00
0F00
1F00
7F80
FFE0
ENDCHAR
STARTCHAR 013B
ENCODING 315
SWIDTH 630 0
DWIDTH 29 0
BBX 28 44 1 -12
BITMAP
FFFC0000
7FF80000
0FC00000
07800000
07800000
07800000
07800000
07800000
07800000
07800000
07800000
07800000
07800000
07800000
07800000
07800000
07800000
07800000
07800000
07800000
07800000
07800030
07800030
07800060
07800060
07800060
078000E0
078001E0
0F8003E0
0E000FE0
FFFFFFC0
FFFFFFC0
00000000
00000000
00030000
00078000
000FC000
000FC000
0003C000
00008000
00008000
00010000
00010000
00040000
ENDCHAR
STARTCHAR 013C
ENCODING 316
SWIDTH 282 0
DWIDTH 13 0
BBX 11 45 1 -12
BITMAP
0700
7F00
7F00
1F00
0F00
0F00
0F00
0F00
0F00
0F00
0F00
0F00
0F00
0F00
0F00
0F00
0F00
0F00
0F00
0F00
0F00
0F00
0F00
0F00
0F00
0F00
0F00
0F00
0F00
0F00
1F00
7F80
FFE0
0000
0000
0400
0F00
1F80
1F80
0580
0300
0300
0600
0400
0800
ENDCHAR
STARTCHAR 013D
ENCODING 317
SWIDTH 652 0
DWIDTH 30 0
BBX 28 33 1 0
BITMAP
00000C00
FFFC1F00
7FF83F80
0FC03F80
07800D80
07800300
07800300
07800600
07800400
07801000
07800000
07800000
07800000
07800000
07800000
07800000
07800000
07800000
07800000
07800000
07800000
07800000
07800030
07800030
07800060
07800060
07800060
078000E0
078001E0
0F8003E0
0E000FE0
FFFFFFC0
FFFFFFC0
ENDCHAR
STARTCHAR 013E
ENCODING 318
SWIDTH 304 0
DWIDTH 14 0
BBX 16 33 1 0
BITMAP
070C
7F1F
7F3F
1F3F
0F0D
0F03
0F03
0F06
0F04
0F10
0F00
0F00
0F00
0F00
0F00
0F00
0F00
0F00
0F00
0F00
0F00
0F00
0F00
0F00
0F00
0F00
0F00
0F00
0F00
0F00
1F00
7F80
FFE0
ENDCHAR
STARTCHAR 013F
ENCODING 319
SWIDTH 630 0
DWIDTH 29 0
BBX 28 32 1 0
BITMAP
FFFC0000
7FF80000
0FC00000
07800000
07800000
07800000
07800000
07800000
07800000
07800000
07800F80
07800F80
07800F80
07800F80
07800F80
07800000
07800000
07800000
07800000
07800000
07800000
07800030
07800030
07800060
07800060
07800060
078000E0
078001E0
0F8003E0
0E000FE0
FFFFFFC0
FFFFFFC0
ENDCHAR
STARTCHAR 0140
ENCODING 320
SWIDTH 304 0
DWIDTH 14 0
BBX 15 33 1 0
BITMAP
0700
7F00
7F00
1F00
0F00
0F00
0F00
0F00
0F00
0F00
0F00
0F00
0F00
0F00
0F00
0F1E
0F1E
0F1E
0F1E
0F1E
0F00
0F00
0F00
0F00
0F00
0F00
0F00
0F00
0F00
0F00
1F00
7F80
FFE0
ENDCHAR
STARTCHAR 0141
ENCODING 321
SWIDTH 630 0
DWIDTH 29 0
BBX 29 32 0 0
BITMAP
7FFE0000
3FFC0000
07E00000
03C00000
03C00000
03C00000
03C00000
03C00000
03C10000
03C30000
03CF0000
03DC0000
03F80000
03F00000
03C00000
0FC00000
1DC00000
3BC00000
E3C00000
C3C00000
03C00000
03C00018
03C00018
03C00030
03C00030
03C00030
03C00070
03C000F0
07C001F0
070007F0
7FFFFFE0
7FFFFFE0
ENDCHAR
STARTCHAR 0142
ENCODING 322
SWIDTH 282 0
DWIDTH 13 0
BBX 16 33 -1 0
BITMAP
01C0
1FC0
1FC0
07C0
03C0
03C0
03C0
03C0
03C0
03C1
03C3
03C7
03DE
03F8
03F0
03E0
07C0
1DC0
39C0
F3C0
C3C0
83C0
03C0
03C0
03C0
03C0
03C0
03C0
03C0
03C0
07C0
1FE0
3FF8
ENDCHAR
STARTCHAR 0143
ENCODING 323
SWIDTH 760 0
DWIDTH 35 0
BBX 33 43 1 0
BITMAP
00001C0000
00003C0000
00007C0000
0000FC0000
0001F00000
0001C00000
0003000000
0004000000
0000000000
0000000000
0000000000
7F8003FF80
3F8001FF80
1FC0003C00
07F0001800
07F0001000
07F8001000
05FC001000
04FE001000
047F001000
043F001000
041F801000
041F801000
040FC01000
0407E01000
0403F01000
0401FC1000
0400FC1000
0400FE1000
04007F1000
04003F9000
04001FD000
04001FD000
04000FD000
040007F000
040003F000
040001F000
040000F000
0600007000
0E00003000
1F00001000
FFE0001000
FFE0001000
ENDCHAR
STARTCHAR 0144
ENCODING 324
SWIDTH 586 0
DWIDTH 27 0
BBX 25 33 1 0
BITMAP
0001C000
0003E000
0007E000
0007E000
001F0000
001C0000
00300000
00200000
00000000
00000000
00000000
0307C000
1F1FE000
7F3FF000
1F60F800
0EC0FC00
0F007C00
0F007C00
0F007C00
0F007C00
0F007C00
0F007C00
0F007C00
0F007C00
0F007C00
0F007C00
0F007C00
0F007C00
0F007C00
0F007C00
1F00FC00
3FC1FF00
FFE3FF80
ENDCHAR
STARTCHAR 0145
ENCODING 325
SWIDTH 760 0
DWIDTH 35 0
BBX 33 44 1 -12
BITMAP
7F8003FF80
3F8001FF80
1FC0003C00
07F0001800
07F0001000
07F8001000
05FC001000
04FE001000
047F001000
043F001000
041F801000
041F801000
040FC01000
0407E01000
0403F01000
0401FC1000
0400FC1000
0400FE1000
04007F1000
04003F9000
04001FD000
04001FD000
04000FD000
040007F000
040003F000
040001F000
040000F000
0600007000
0E00003000
1F00001000
FFE0001000
FFE0001000
0000000000
0000000000
0000800000
0001E00000
0003F00000
0003F00000
0000B00000
0000600000
0000600000
0000C00000
0000800000
0001000000
ENDCHAR
STARTCHAR 0146
ENCODING 326
SWIDTH 586 0
DWIDTH 27 0
BBX 25 34 1 -12
BITMAP
0307C000
1F1FE000
7F3FF000
1F60F800
0EC0FC00
0F007C00
0F007C00
0F007C00
0F007C00
0F007C00
0F007C00
0F007C00
0F007C00
0F007C00
0F007C00
0F007C00
0F007C00
0F007C00
0F007C00
1F00FC00
3FC1FF00
FFE3FF80
00000000
00000000
000C0000
001F0000
003F0000
003F0000
000D0000
00030000
00030000
00060000
00040000
00100000
ENDCHAR
STARTCHAR 0147
ENCODING 327
SWIDTH 760 0
DWIDTH 35 0
BBX 33 42 1 0
BITMAP
0020010000
0018060000
000FBC0000
0007780000
0003F00000
0003F00000
0000000000
0000000000
0000000000
0000000000
7F8003FF80
3F8001FF80
1FC0003C00
07F0001800
07F0001000
07F8001000
05FC001000
04FE001000
047F001000
043F001000
041F801000
041F801000
040FC01000
0407E01000
0403F01000
0401FC1000
0400FC1000
0400FE1000
04007F1000
04003F9000
04001FD000
04001FD000
04000FD000
040007F000
040003F000
040001F000
040000F000
0600007000
0E00003000
1F00001000
FFE0001000
FFE0001000
ENDCHAR
STARTCHAR 0148
ENCODING 328
SWIDTH 586 0
DWIDTH 27 0
BBX 25 32 1 0
BITMAP
02001000
01806000
01F0C000
007B8000
003F0000
003F0000
00000000
00000000
00000000
00000000
0307C000
1F1FE000
7F3FF000
1F60F800
0EC0FC00
0F007C00
0F007C00
0F007C00
0F007C00
0F007C00
0F007C00
0F007C00
0F007C00
0F007C00
0F007C00
0F007C00
0F007C00
0F007C00
0F007C00
1F00FC00
3FC1FF00
FFE3FF80
ENDCHAR
STARTCHAR 014A
ENCODING 330
SWIDTH 760 0
DWIDTH 35 0
BBX 33 44 1 -12
BITMAP
7F8003FF80
3F8001FF80
1FC0007C00
07F0003800
07F0003000
07F8003000
05FC003000
04FE003000
047F003000
047F003000
043F803000
041F803000
040FC03000
0407E03000
0403F03000
0401FC3000
0400FC3000
0400FE3000
04007F3000
04007FB000
04003FF000
04001FF000
04000FF000
04000FF000
040007F000
040003F000
040000F000
060000F000
0E00007000
1F00003000
FFE0003000
FFE0003000
0000003000
0000003000
0000003000
0000803000
0001E03000
0001E03000
0001803000
0001C07000
0001C07000
0000F0E000
0000FFC000
00001F8000
ENDCHAR
STARTCHAR 014B
ENCODING 331
SWIDTH 565 0
DWIDTH 26 0
BBX 22 33 1 -11
BITMAP
0307C0
1F1FE0
7F3FF8
1F70F8
0EC0FC
0F007C
0F007C
0F007C
0F007C
0F007C
0F007C
0F007C
0F007C
0F007C
0F007C
0F007C
0F007C
0F007C
0F007C
0F807C
3FC07C
FFE07C
00007C
00007C
00007C
00007C
00007C
00007C
003C7C
003C78
0038F0
001FE0
000780
ENDCHAR
STARTCHAR 014C
ENCODING 332
SWIDTH 739 0
DWIDTH 34 0
BBX 30 41 2 -1
BITMAP
00FFFC00
00FFFC00
00000000
00000000
00000000
00000000
00000000
00030000
003FF000
00FFFE00
03E03F00
0F0007C0
0F0003E0
1E0003E0
1E0001F0
3C0001F0
3C0000F8
7C0000F8
780000F8
7800007C
F800007C
F800007C
F800007C
F800007C
F800007C
F800007C
F800007C
F800007C
FC000078
7C000078
7C000078
7C0000F0
3E0000F0
3E0001E0
0F0003E0
0F8007C0
07C00F80
03F01F00
00FFFC00
003FF000
00030000
ENDCHAR
STARTCHAR 014D
ENCODING 333
SWIDTH 521 0
DWIDTH 24 0
BBX 20 30 2 -1
BITMAP
0FFF80
000000
000000
000000
000000
000000
000000
03F800
0FFE00
0F0F00
1C0780
3803C0
7801E0
F001E0
F001F0
F001F0
F001F0
F001F0
F001F0
F001F0
F001F0
F001F0
F801E0
7801E0
3C01C0
3C0380
1E0700
0FFE00
07FE00
006000
ENDCHAR
STARTCHAR 014E
ENCODING 334
SWIDTH 739 0
DWIDTH 34 0
BBX 30 42 2 -1
BITMAP
00400800
0078F800
003FF000
003FF000
000FC000
00038000
00000000
00000000
00030000
003FF000
00FFFE00
03E03F00
0F0007C0
0F0003E0
1E0003E0
1E0001F0
3C0001F0
3C0000F8
7C0000F8
780000F8
7800007C
F800007C
F800007C
F800007C
F800007C
F800007C
F800007C
F800007C
F800007C
FC000078
7C000078
7C000078
7C0000F0
3E0000F0
3E0001E0
0F0003E0
0F8007C0
07C00F80
03F01F00
00FFFC00
003FF000
00030000
ENDCHAR
STARTCHAR 014F
ENCODING 335
SWIDTH 521 0
DWIDTH 24 0
BBX 20 32 2 -1
BITMAP
080100
0C0100
07FE00
07FE00
01FC00
007800
000000
000000
000000
03F800
0FFE00
0F0F00
1C0780
3803C0
7801E0
F001E0
F001F0
F001F0
F001F0
F001F0
F001F0
F001F0
F001F0
F001F0
F801E0
7801E0
3C01C0
3C0380
1E0700
0FFE00
07FE00
006000
ENDCHAR
STARTCHAR 0150
ENCODING 336
SWIDTH 739 0
DWIDTH 34 0
BBX 30 44 2 -1
BITMAP
00030700
00078F80
000F9F80
001E3E00
001C3800
00387000
00204000
00408000
00000000
00000000
00030000
003FF000
00FFFE00
03E03F00
0F0007C0
0F0003E0
1E0003E0
1E0001F0
3C0001F0
3C0000F8
7C0000F8
780000F8
7800007C
F800007C
F800007C
F800007C
F800007C
F800007C
F800007C
F800007C
F800007C
FC000078
7C000078
7C000078
7C0000F0
3E0000F0
3E0001E0
0F0003E0
0F8007C0
07C00F80
03F01F00
00FFFC00
003FF000
00030000
ENDCHAR
STARTCHAR 0151
ENCODING 337
SWIDTH 521 0
DWIDTH 24 0
BBX 20 34 2 -1
BITMAP
0070E0
00F9F0
01F9F0
01F1E0
038300
070600
040400
080800
000000
000000
000000
03F800
0FFE00
0F0F00
1C0780
3803C0
7801E0
F001E0
F001F0
F001F0
F001F0
F001F0
F001F0
F001F0
F001F0
F001F0
F801E0
7801E0
3C01C0
3C0380
1E0700
0FFE00
07FE00
006000
ENDCHAR
STARTCHAR 0152
ENCODING 338
SWIDTH 1065 0
DWIDTH 49 0
BBX 45 32 2 0
BITMAP
0007FFFFFFE0
007FFFFFFFE0
01FC01E003E0
07C003E000F0
0F8003E000F0
0F0003E00070
1E0003E00070
3E0003E00070
3C0003E00030
7C0003E00030
780003E00C10
F80003E01C00
F80003E01C00
F80003E01C00
F80003E03C00
F80003FFFC00
F80003E07C00
F80003E03C00
F80003E01C00
F80003E01C00
F80003E00C00
780003E00C18
7C0003E00018
3C0003E00010
3E0003E00010
1E0003E00030
0F8003E00070
07C003E000F0
03F003E001F0
00FE038003F0
003FFFFFFFE0
0007FFFFFFE0
ENDCHAR
STARTCHAR 0153
ENCODING 339
SWIDTH 826 0
DWIDTH 38 0
BBX 35 23 1 -1
BITMAP
01FC01F800
07FF03FE00
0707070F00
0E038E0780
1C01DC03C0
3800F801E0
7800F801E0
7800F801E0
7800FFFFE0
F800FFFFE0
F800E00000
F800F80000
F800F80000
F800F80000
7800F80000
7800FC0000
3800FE0000
3C00FE0040
1E01DF8180
0F038FFF80
07FF07FF00
03FE03FC00
0030000000
ENDCHAR
STARTCHAR 0154
ENCODING 340
SWIDTH 695 0
DWIDTH 32 0
BBX 31 43 1 0
BITMAP
0000E000
0001F000
0003F000
0007E000
000F8000
000E0000
00180000
00200000
00000000
00000000
00000000
FFFFE000
7FFFFC00
0E007E00
07800F80
07800FC0
078007C0
078007C0
078007E0
078007C0
078007C0
078007C0
07800F80
07800F80
07801F00
07807E00
07FFE000
0600F800
0780FC00
07807E00
07803E00
07803F00
07803F00
07801F00
07801F80
07800F80
07800FC0
078007E0
078007E0
078007E0
0FC003F0
FFF803FC
FFFC01FE
ENDCHAR
STARTCHAR 0155
ENCODING 341
SWIDTH 434 0
DWIDTH 20 0
BBX 18 33 1 0
BITMAP
000E00
001F00
003F00
003F00
007800
006000
00C000
010000
000000
000000
000000
030780
1F0FC0
7F39C0
1F23C0
0F43C0
0E8000
0F0000
0F0000
0F0000
0F0000
0F0000
0F0000
0F0000
0F0000
0F0000
0F0000
0F0000
0F0000
0F0000
0F8000
3FC000
FFF000
ENDCHAR
STARTCHAR 0156
ENCODING 342
SWIDTH 695 0
DWIDTH 32 0
BBX 31 44 1 -12
BITMAP
FFFFE000
7FFFFC00
0E007E00
07800F80
07800FC0
078007C0
078007C0
078007E0
078007C0
078007C0
078007C0
07800F80
07800F80
07801F00
07807E00
07FFE000
0600F800
0780FC00
07807E00
07803E00
07803F00
07803F00
07801F00
07801F80
07800F80
07800FC0
078007E0
078007E0
078007E0
0FC003F0
FFF803FC
FFFC01FE
00000000
00000000
00010000
0003C000
0007E000
0007E000
00016000
0000C000
0000C000
00008000
00010000
00020000
ENDCHAR
STARTCHAR 0157
ENCODING 343
SWIDTH 434 0
DWIDTH 20 0
BBX 18 33 1 -12
BITMAP
030780
1F0FC0
7F39C0
1F23C0
0F43C0
0E8000
0F0000
0F0000
0F0000
0F0000
0F0000
0F0000
0F0000
0F0000
0F0000
0F0000
0F0000
0F0000
0F0000
0F8000
3FC000
FFF000
000000
000000
060000
078000
0FC000
0FC000
06C000
018000
018000
030000
020000
ENDCHAR
STARTCHAR 0158
ENCODING 344
SWIDTH 695 0
DWIDTH 32 0
BBX 31 42 1 0
BITMAP
01000800
00C03000
007EE000
0039C000
001F8000
001F8000
00000000
00000000
00000000
00000000
FFFFE000
7FFFFC00
0E007E00
07800F80
07800FC0
078007C0
078007C0
078007E0
078007C0
078007C0
078007C0
07800F80
07800F80
07801F00
07807E00
07FFE000
0600F800
0780FC00
07807E00
07803E00
07803F00
07803F00
07801F00
07801F80
07800F80
07800FC0
078007E0
078007E0
078007E0
0FC003F0
FFF803FC
FFFC01FE
ENDCHAR
STARTCHAR 0159
ENCODING 345
SWIDTH 434 0
DWIDTH 20 0
BBX 18 32 1 0
BITMAP
080080
040100
078300
03DE00
01FC00
01FC00
000000
000000
000000
000000
030780
1F0FC0
7F39C0
1F23C0
0F43C0
0E8000
0F0000
0F0000
0F0000
0F0000
0F0000
0F0000
0F0000
0F0000
0F0000
0F0000
0F0000
0F0000
0F0000
0F8000
3FC000
FFF000
ENDCHAR
STARTCHAR 015A
ENCODING 346
SWIDTH 543 0
DWIDTH 25 0
BBX 23 44 1 -1
BITMAP
000700
000F80
001F80
003F00
003C00
003000
006000
008000
000000
000000
004000
07FC18
0FFF78
1E0338
3800F8
7800F8
780078
780078
780038
780038
780018
7C0000
7F0000
3FC000
3FF800
1FFE00
03FFE0
00FFF0
001FF8
0003FC
0001FC
0000FE
C0007E
E0003E
E0003E
F0003E
F0003E
F8003C
F80078
EC00F8
6700F0
77FFE0
41FF80
001C00
ENDCHAR
STARTCHAR 015B
ENCODING 347
SWIDTH 391 0
DWIDTH 18 0
BBX 16 34 1 -1
BITMAP
0038
003C
007C
007C
01E0
01C0
0300
0400
0000
0000
0000
0783
1FE7
387B
381F
780F
7803
7803
7803
7F00
3FC0
1FF8
07FE
03FF
007F
001F
C00F
F007
F007
F807
D80E
E7FC
E7F8
8000
ENDCHAR
STARTCHAR 015C
ENCODING 348
SWIDTH 543 0
DWIDTH 25 0
BBX 23 42 1 -1
BITMAP
00FE00
01E700
03DF00
030780
060080
080040
000000
000000
004000
07FC18
0FFF78
1E0338
3800F8
7800F8
780078
780078
780038
780038
780018
7C0000
7F0000
3FC000
3FF800
1FFE00
03FFE0
00FFF0
001FF8
0003FC
0001FC
0000FE
C0007E
E0003E
E0003E
F0003E
F0003E
F8003C
F80078
EC00F8
6700F0
77FFE0
41FF80
001C00
ENDCHAR
STARTCHAR 015D
ENCODING 349
SWIDTH 391 0
DWIDTH 18 0
BBX 16 32 1 -1
BITMAP
07F0
07F0
0EFC
083E
1806
2001
0000
0000
0000
0783
1FE7
387B
381F
780F
7803
7803
7803
7F00
3FC0
1FF8
07FE
03FF
007F
001F
C00F
F007
F007
F807
D80E
E7FC
E7F8
8000
ENDCHAR
STARTCHAR 015E
ENCODING 350
SWIDTH 543 0
DWIDTH 25 0
BBX 23 42 1 -9
BITMAP
004000
07FC18
0FFF78
1E0338
3800F8
7800F8
780078
780078
780038
780038
780018
7C0000
7F0000
3FC000
3FF000
1FFE00
03FFC0
00FFF0
001FF8
0003FC
0001FC
0000FE
C0007E
E0003E
E0003E
F0003E
F0003E
F8003C
F80078
EC00F8
6700F0
77FFE0
41FF80
001C00
003000
006000
00EC00
007E00
001F00
000F00
000E00
01FC00
ENDCHAR
STARTCHAR 015F
ENCODING 351
SWIDTH 391 0
DWIDTH 18 0
BBX 16 31 1 -9
BITMAP
0783
1FF7
387B
381F
780F
7803
7803
7803
7F00
3FE0
1FFC
07FE
03FF
007F
001F
C00F
F007
F007
F807
D81E
E7FC
E7F8
8180
0100
0300
03E0
03F0
00F8
0078
00F0
07E0
ENDCHAR
STARTCHAR 0160
ENCODING 352
SWIDTH 543 0
DWIDTH 25 0
BBX 23 43 1 -1
BITMAP
080040
060080
03F700
01CF00
00FE00
00FE00
000000
000000
000000
004000
07FC18
0FFF78
1E0338
3800F8
7800F8
780078
780078
780038
780038
780018
7C0000
7F0000
3FC000
3FF800
1FFE00
03FFE0
00FFF0
001FF8
0003FC
0001FC
0000FE
C0007E
E0003E
E0003E
F0003E
F0003E
F8003C
F80078
EC00F8
6700F0
77FFE0
41FF80
001C00
ENDCHAR
STARTCHAR 0161
ENCODING 353
SWIDTH 391 0
DWIDTH 18 0
BBX 16 33 1 -1
BITMAP
2001
1806
1E0C
07F8
07F0
07F0
0000
0000
0000
0000
0783
1FE7
387B
381F
780F
7803
7803
7803
7F00
3FC0
1FF8
07FE
03FF
007F
001F
C00F
F007
F007
F807
D80E
E7FC
E7F8
8000
ENDCHAR
STARTCHAR 0164
ENCODING 356
SWIDTH 652 0
DWIDTH 30 0
BBX 28 42 1 0
BITMAP
00800400
00601800
003FF000
001CE000
000FC000
000FC000
00000000
00000000
00000000
00000000
FFFFFFF0
FFFFFFF0
FC0E03F0
F00F0070
E00F0030
E00F0030
C00F0010
C00F0010
C00F0010
C00F0010
000F0000
000F0000
000F0000
000F0000
000F0000
000F0000
000F0000
000F0000
000F0000
000F0000
000F0000
000F0000
000F0000
000F0000
000F0000
000F0000
000F0000
000F0000
000F0000
001F8000
01FFF000
01FFF800
ENDCHAR
STARTCHAR 0165
ENCODING 357
SWIDTH 326 0
DWIDTH 15 0
BBX 16 34 1 0
BITMAP
0018
003E
007F
007F
007B
0206
0206
060C
0608
0E20
1E00
3E00
7FF8
FFF8
1800
1E00
1E00
1E00
1E00
1E00
1E00
1E00
1E00
1E00
1E00
1E00
1E00
1E00
1E00
1E08
1E18
1FF0
0FE0
07C0
ENDCHAR
STARTCHAR 0166
ENCODING 358
SWIDTH 652 0
DWIDTH 30 0
BBX 28 32 1 0
BITMAP
FFFFFFF0
FFFFFFF0
FC0E03F0
F00F0070
E00F0030
E00F0030
C00F0010
C00F0010
C00F0010
C00F0010
000F0000
000F0000
000F0000
000F0000
000F0000
07FFFF00
00070000
000F0000
000F0000
000F0000
000F0000
000F0000
000F0000
000F0000
000F0000
000F0000
000F0000
000F0000
000F0000
001F8000
01FFF000
01FFF800
ENDCHAR
STARTCHAR 0167
ENCODING 359
SWIDTH 326 0
DWIDTH 15 0
BBX 14 29 0 0
BITMAP
0100
0100
0300
0300
0700
0F00
1F00
3FFC
7FFC
0C00
0F00
0F00
0F00
0F00
0F00
FFFC
FFFC
0300
0F00
0F00
0F00
0F00
0F00
0F00
0F04
0F0C
0FF8
07F0
03E0
ENDCHAR
STARTCHAR 0168
ENCODING 360
SWIDTH 760 0
DWIDTH 35 0
BBX 33 43 1 -1
BITMAP
0006004000
001F804000
003FFF8000
0023FF0000
0040FE0000
00007E0000
0000000000
0000000000
0000000000
0000000000
FFFC03FF80
7FF803FF80
0FC0007C00
0780001000
0780001000
0780001000
0780001000
0780001000
0780001000
0780001000
0780001000
0780001000
0780001000
0780001000
0780001000
0780001000
0780001000
0780001000
0780001000
0780001000
0780001000
0780003000
0780003000
0780003000
07C0003000
07C0007000
07E000E000
03F001C000
03FC07C000
01FFFF8000
007FFE0000
001FF80000
0001800000
ENDCHAR
STARTCHAR 0169
ENCODING 361
SWIDTH 586 0
DWIDTH 27 0
BBX 24 32 1 0
BITMAP
00C008
03F808
03FC10
047FE0
081FC0
0007C0
000000
000000
000000
000000
03000C
1F00FC
FF03FC
3F00FC
1F00FC
0F007C
0F007C
0F007C
0F007C
0F007C
0F007C
0F007C
0F007C
0F007C
0F007C
0F007C
0F00FC
0F00BC
0F817C
07FF7C
07FE7F
03FC7C
ENDCHAR
STARTCHAR 016A
ENCODING 362
SWIDTH 760 0
DWIDTH 35 0
BBX 33 41 1 -1
BITMAP
003FFF0000
003FFF0000
0000000000
0000000000
0000000000
0000000000
0000000000
0000000000
FFFC03FF80
7FF803FF80
0FC0007C00
0780001000
0780001000
0780001000
0780001000
0780001000
0780001000
0780001000
0780001000
0780001000
0780001000
0780001000
0780001000
0780001000
0780001000
0780001000
0780001000
0780001000
0780001000
0780003000
0780003000
0780003000
07C0003000
07C0007000
07E000E000
03F001C000
03FC07C000
01FFFF8000
007FFE0000
001FF80000
0001800000
ENDCHAR
STARTCHAR 016B
ENCODING 363
SWIDTH 586 0
DWIDTH 27 0
BBX 24 29 1 0
BITMAP
07FFE0
000000
000000
000000
000000
000000
000000
03000C
1F00FC
FF03FC
3F00FC
1F00FC
0F007C
0F007C
0F007C
0F007C
0F007C
0F007C
0F007C
0F007C
0F007C
0F007C
0F007C
0F00FC
0F00BC
0F817C
07FF7C
07FE7F
03FC7C
ENDCHAR
STARTCHAR 016C
ENCODING 364
SWIDTH 760 0
DWIDTH 35 0
BBX 33 42 1 -1
BITMAP
0010020000
001E3E0000
000FFC0000
000FFC0000
0003F00000
0000E00000
0000000000
0000000000
0000000000
FFFC03FF80
7FF803FF80
0FC0007C00
0780001000
0780001000
0780001000
0780001000
0780001000
0780001000
0780001000
0780001000
0780001000
0780001000
0780001000
0780001000
0780001000
0780001000
0780001000
0780001000
0780001000
0780001000
0780003000
0780003000
0780003000
07C0003000
07C0007000
07E000E000
03F001C000
03FC07C000
01FFFF8000
007FFE0000
001FF80000
0001800000
ENDCHAR
STARTCHAR 016D
ENCODING 365
SWIDTH 586 0
DWIDTH 27 0
BBX 24 31 1 0
BITMAP
020040
0300C0
01FF80
01FF80
007F00
001E00
000000
000000
000000
03000C
1F00FC
FF03FC
3F00FC
1F00FC
0F007C
0F007C
0F007C
0F007C
0F007C
0F007C
0F007C
0F007C
0F007C
0F007C
0F007C
0F00FC
0F00BC
0F817C
07FF7C
07FE7F
03FC7C
ENDCHAR
STARTCHAR 016E
ENCODING 366
SWIDTH 760 0
DWIDTH 35 0
BBX 33 44 1 -1
BITMAP
0000800000
0003F00000
0007380000
0006180000
0006180000
0006180000
0007380000
0003F00000
0000C00000
0000000000
0000000000
FFFC03FF80
7FF803FF80
0FC0007C00
0780001000
0780001000
0780001000
0780001000
0780001000
0780001000
0780001000
0780001000
0780001000
0780001000
0780001000
0780001000
0780001000
0780001000
0780001000
0780001000
0780001000
0780001000
0780003000
0780003000
0780003000
07C0003000
07C0007000
07E000E000
03F001C000
03FC07C000
01FFFF8000
007FFE0000
001FF80000
0001800000
ENDCHAR
STARTCHAR 016F
ENCODING 367
SWIDTH 586 0
DWIDTH 27 0
BBX 24 33 1 0
BITMAP
000800
007F00
00E300
00C100
00C100
00C100
00E300
007F00
001C00
000000
000000
03000C
1F00FC
FF03FC
3F00FC
1F00FC
0F007C
0F007C
0F007C
0F007C
0F007C
0F007C
0F007C
0F007C
0F007C
0F007C
0F007C
0F00FC
0F00BC
0F817C
07FF7C
07FE7F
03FC7C
ENDCHAR
STARTCHAR 0170
ENCODING 368
SWIDTH 760 0
DWIDTH 35 0
BBX 33 44 1 -1
BITMAP
0000C1C000
0001E3E000
0003E7E000
00078F8000
00070E0000
000E1C0000
0008100000
0010200000
0000000000
0000000000
0000000000
FFFC03FF80
7FF803FF80
0FC0007C00
0780001000
0780001000
0780001000
0780001000
0780001000
0780001000
0780001000
0780001000
0780001000
0780001000
0780001000
0780001000
0780001000
0780001000
0780001000
0780001000
0780001000
0780001000
0780003000
0780003000
0780003000
07C0003000
07C0007000
07E000E000
03F001C000
03FC07C000
01FFFF8000
007FFE0000
001FF80000
0001800000
ENDCHAR
STARTCHAR 0171
ENCODING 369
SWIDTH 586 0
DWIDTH 27 0
BBX 24 33 1 0
BITMAP
001C38
003E7C
007EFC
007CF8
00E0C0
01C180
010100
020200
000000
000000
000000
03000C
1F00FC
FF03FC
3F00FC
1F00FC
0F007C
0F007C
0F007C
0F007C
0F007C
0F007C
0F007C
0F007C
0F007C
0F007C
0F007C
0F00FC
0F00BC
0F817C
07FF7C
07FE7F
03FC7C
ENDCHAR
STARTCHAR 0172
ENCODING 370
SWIDTH 760 0
DWIDTH 35 0
BBX 33 42 1 -10
BITMAP
FFFC03FF80
7FF803FF80
0FC0007C00
0780001000
0780001000
0780001000
0780001000
0780001000
0780001000
0780001000
0780001000
0780001000
0780001000
0780001000
0780001000
0780001000
0780001000
0780001000
0780001000
0780001000
0780001000
0780003000
0780003000
0780003000
07C0003000
07C0007000
07E000E000
03F001E000
03FC07C000
01FFFF8000
007FFE0000
001FFC0000
0001E00000
0000800000
0001000000
0003000000
0007000000
0007000000
000F000000
0007F00000
0007E00000
0001000000
ENDCHAR
STARTCHAR 0173
ENCODING 371
SWIDTH 586 0
DWIDTH 27 0
BBX 26 31 1 -9
BITMAP
03000C00
1F00FC00
FF03FC00
3F00FC00
1F00FC00
0F007C00
0F007C00
0F007C00
0F007C00
0F007C00
0F007C00
0F007C00
0F007C00
0F007C00
0F007C00
0F007C00
0F00FC00
0F00BC00
0F817C00
07FF7C00
07FE7F00
03FC7F80
00000600
00001C00
00003800
00003000
00007000
00007000
00007DC0
00003F80
00000C00
ENDCHAR
STARTCHAR 0174
ENCODING 372
SWIDTH 1021 0
DWIDTH 47 0
BBX 47 42 0 -1
BITMAP
00000FE00000
00001E700000
00003DF80000
000030780000
000060080000
000080040000
000000000000
000000000000
000000000000
FFF07FF007FE
7FF07FF003FC
1F803FC000F0
0F800F8000E0
07800FC000C0
07C007C000C0
03C007C00080
03C007E00180
03E003E00180
03E003F00100
03F001F00300
01F001F00300
01F003F80300
01F803F80700
00F803F80600
00FC06780E00
007C0E7C0C00
007E0C3C1C00
003E0C3C1C00
003E181E1800
003F181E3800
001F301E3000
001FB00F3000
000FB00F7000
000FE00F6000
000FE007E000
0007C007C000
0007C007C000
000380078000
000380038000
000180038000
000180030000
000100010000
ENDCHAR
STARTCHAR 0175
ENCODING 373
SWIDTH 782 0
DWIDTH 36 0
BBX 35 31 0 0
BITMAP
0000FC0000
0000FC0000
0003BF0000
00030F8000
0006018000
0008004000
0000000000
0000000000
0000000000
FFE7FE0FE0
FFE7FE0FE0
3F01F807C0
1F00F00780
0F00F00300
0780780600
0780780600
03C07C0400
03C07C0400
03C0BC0800
03E0BE0800
03E0BE1800
01F19F1800
01F19F1800
00FB0FB000
00FB0FB000
0076076000
007E07E000
003C03C000
003C03C000
0018018000
0018018000
ENDCHAR
STARTCHAR 0176
ENCODING 374
SWIDTH 717 0
DWIDTH 33 0
BBX 31 41 1 0
BITMAP
0003F000
00073800
000FFC00
000C3E00
00180600
00200100
00000000
00000000
00000000
FFF007FE
7FE003FE
3F8000F8
0F800060
07800060
07C000C0
07E00180
03E00180
03F00300
01F80700
00F80600
00FC0C00
007E0C00
003E1800
003F3000
000F6000
000FC000
0007C000
0003C000
0003C000
0003C000
0003C000
0003C000
0003C000
0003C000
0003C000
0003C000
0003C000
0003C000
0007E000
007FFC00
007FFE00
ENDCHAR
STARTCHAR 0177
ENCODING 375
SWIDTH 543 0
DWIDTH 25 0
BBX 26 42 -1 -11
BITMAP
001FC000
001FC000
007BE000
0060F000
00C03000
01000800
00000000
00000000
00000000
7FF07FC0
7FF07FC0
1F801F00
0F801E00
07800C00
03C01800
03C01800
03C03000
01E03000
01E02000
01F02000
01F04000
00F04000
00F8C000
00F8C000
007D8000
003B8000
003B0000
003E0000
001E0000
001E0000
000C0000
001C0000
00180000
00380000
00300000
00300000
00600000
F8C00000
F9800000
73800000
7E000000
1C000000
ENDCHAR
STARTCHAR 0178
ENCODING 376
SWIDTH 717 0
DWIDTH 33 0
BBX 31 41 1 0
BITMAP
003E1F00
003E1F00
003E1F00
003E1F00
00000000
00000000
00000000
00000000
00000000
FFF007FE
7FE003FE
3F8000F8
0F800060
07800060
07C000C0
07E00180
03E00180
03F00300
01F80700
00F80600
00FC0C00
007E0C00
003E1800
003F3000
000F6000
000FC000
0007C000
0003C000
0003C000
0003C000
0003C000
0003C000
0003C000
0003C000
0003C000
0003C000
0003C000
0003C000
0007E000
007FFC00
007FFE00
ENDCHAR
STARTCHAR 0179
ENCODING 377
SWIDTH 608 0
DWIDTH 28 0
BBX 26 43 1 0
BITMAP
0001C000
0003E000
0007E000
000FC000
001F0000
001C0000
00300000
00200000
00000000
00000000
00000000
3FFFFF80
7FFFFF00
7E000E00
78007C00
7800F800
7000F800
7000F000
6001F000
6001E000
6003C000
6007C000
00078000
000F8000
000F0000
001F0000
003E0000
007C0000
00FC0000
00F80000
01F80000
03F00000
03E000C0
07E000C0
07C000C0
078000C0
0F800180
1F000380
3E000380
3C000780
70001F00
FFFFFF00
FFFFFF00
ENDCHAR
STARTCHAR 017A
ENCODING 378
SWIDTH 456 0
DWIDTH 21 0
BBX 19 33 1 0
BITMAP
000E00
001F00
003F00
003F00
007800
006000
00C000
010000
000000
000000
000000
7FFFE0
7FFFC0
7E01C0
780780
700F00
601F00
603E00
607E00
407C00
00F800
01F800
01F000
03E000
07C000
07C060
078060
0F00E0
1E00C0
3C00C0
7803C0
7FFFC0
FFFFC0
ENDCHAR
STARTCHAR 017B
ENCODING 379
SWIDTH 608 0
DWIDTH 28 0
BBX 26 41 1 0
BITMAP
001F0000
001F0000
001F0000
001F0000
00000000
00000000
00000000
00000000
00000000
3FFFFF80
7FFFFF00
7E000E00
78007C00
7800F800
7000F800
7000F000
6001F000
6001E000
6003C000
6007C000
00078000
000F8000
000F0000
001F0000
003E0000
007C0000
00FC0000
00F80000
01F80000
03F00000
03E000C0
07E000C0
07C000C0
078000C0
0F800180
1F000380
3E000380
3C000780
70001F00
FFFFFF00
FFFFFF00
ENDCHAR
STARTCHAR 017C
ENCODING 380
SWIDTH 456 0
DWIDTH 21 0
BBX 19 31 1 0
BITMAP
00F800
00F800
00F800
00F800
000000
000000
000000
000000
000000
7FFFE0
7FFFC0
7E01C0
780780
700F00
601F00
603E00
607E00
407C00
00F800
01F800
01F000
03E000
07C000
07C060
078060
0F00E0
1E00C0
3C00C0
7803C0
7FFFC0
FFFFC0
ENDCHAR
STARTCHAR 017D
ENCODING 381
SWIDTH 608 0
DWIDTH 28 0
BBX 26 42 1 0
BITMAP
02001000
01806000
00FDC000
00738000
003F0000
003F0000
00000000
00000000
00000000
00000000
3FFFFF80
7FFFFF00
7E000E00
78007C00
7800F800
7000F800
7000F000
6001F000
6001E000
6003C000
6007C000
00078000
000F8000
000F0000
001F0000
003E0000
007C0000
00FC0000
00F80000
01F80000
03F00000
03E000C0
07E000C0
07C000C0
078000C0
0F800180
1F000380
3E000380
3C000780
70001F00
FFFFFF00
FFFFFF00
ENDCHAR
STARTCHAR 017E
ENCODING 382
SWIDTH 456 0
DWIDTH 21 0
BBX 19 32 1 0
BITMAP
080080
040100
078300
03DE00
01FC00
01FC00
000000
000000
000000
000000
7FFFE0
7FFFC0
7E01C0
780780
700F00
601F00
603E00
607E00
407C00
00F800
01F800
01F000
03E000
07C000
07C060
078060
0F00E0
1E00C0
3C00C0
7803C0
7FFFC0
FFFFC0
ENDCHAR
STARTCHAR 0218
ENCODING 536
SWIDTH 543 0
DWIDTH 25 0
BBX 23 45 1 -12
BITMAP
004000
07FC18
0FFF78
1E0338
3800F8
7800F8
780078
780078
780038
780038
780018
7C0000
7F0000
3FC000
3FF800
1FFE00
03FFE0
00FFF0
001FF8
0003FC
0001FC
0000FE
C0007E
E0003E
E0003E
F0003E
F0003E
F8003C
F80078
EC00F8
6700F0
77FFE0
41FF80
001C00
000000
001800
003E00
007F00
007F00
001B00
000600
000600
000C00
000800
002000
ENDCHAR
STARTCHAR 0219
ENCODING 537
SWIDTH 391 0
DWIDTH 18 0
BBX 16 34 1 -12
BITMAP
0783
1FE7
387B
381F
780F
7803
7803
7803
7F00
3FC0
1FF8
07FE
03FF
007F
001F
C00F
F007
F007
F807
D80E
E7FC
E7F8
8000
0000
0180
03E0
07F0
07F0
01B0
0060
0060
00C0
0080
0200
ENDCHAR
STARTCHAR 021A
ENCODING 538
SWIDTH 652 0
DWIDTH 30 0
BBX 28 44 1 -12
BITMAP
FFFFFFF0
FFFFFFF0
FC0E03F0
F00F0070
E00F0030
E00F0030
C00F0010
C00F0010
C00F0010
C00F0010
000F0000
000F0000
000F0000
000F0000
000F0000
000F0000
000F0000
000F0000
000F0000
000F0000
000F0000
000F0000
000F0000
000F0000
000F0000
000F0000
000F0000
000F0000
000F0000
001F8000
01FFF000
01FFF800
00000000
00000000
00030000
00078000
000FC000
000FC000
0003C000
00008000
00008000
00010000
00010000
00040000
ENDCHAR
STARTCHAR 021B
ENCODING 539
SWIDTH 326 0
DWIDTH 15 0
BBX 13 41 1 -12
BITMAP
0200
0200
0600
0600
0E00
1E00
3E00
7FF8
FFF8
1800
1E00
1E00
1E00
1E00
1E00
1E00
1E00
1E00
1E00
1E00
1E00
1E00
1E00
1E00
1E08
1E18
1FF0
0FE0
07C0
0000
0000
0300
07C0
07E0
07E0
0360
00C0
00C0
0180
0100
0400
ENDCHAR
STARTCHAR 02C6
ENCODING 710
SWIDTH 500 0
DWIDTH 23 0
BBX 13 6 5 25
BITMAP
1FC0
1FC0
7BF0
60F0
4010
8008
ENDCHAR
STARTCHAR 02C7
ENCODING 711
SWIDTH 500 0
DWIDTH 23 0
BBX 13 6 5 26
BITMAP
8008
4010
7830
3DE0
1FC0
1FC0
ENDCHAR
STARTCHAR 02D8
ENCODING 728
SWIDTH 500 0
DWIDTH 23 0
BBX 11 6 6 25
BITMAP
8020
8020
FFE0
FFE0
3F80
0F00
ENDCHAR
STARTCHAR 02D9
ENCODING 729
SWIDTH 500 0
DWIDTH 23 0
BBX 5 4 9 27
BITMAP
F8
F8
F8
F8
ENDCHAR
STARTCHAR 02DA
ENCODING 730
SWIDTH 500 0
DWIDTH 23 0
BBX 9 9 7 24
BITMAP
0800
7F00
E380
C180
C180
C180
E380
7F00
1C00
ENDCHAR
STARTCHAR 02DB
ENCODING 731
SWIDTH 500 0
DWIDTH 23 0
BBX 8 10 7 -10
BITMAP
06
1C
30
70
E0
E0
E0
FF
7E
18
ENDCHAR
STARTCHAR 02DC
ENCODING 732
SWIDTH 500 0
DWIDTH 23 0
BBX 16 6 4 26
BITMAP
1801
3F01
3F82
4FFC
83F8
00F8
ENDCHAR
STARTCHAR 02DD
ENCODING 733
SWIDTH 500 0
DWIDTH 23 0
BBX 15 8 6 25
BITMAP
0E1C
1F1E
3F3E
3E3C
7060
E0E0
8080
8100
ENDCHAR
STARTCHAR 1E80
ENCODING 7808
SWIDTH 1021 0
DWIDTH 47 0
BBX 47 45 0 -1
BITMAP
000038000000
00007C000000
00007E000000
00007E000000
00003E000000
00000F000000
000003000000
000001800000
000000400000
000000000000
000000000000
000000000000
FFF07FF007FE
7FF07FF003FC
1F803FC000F0
0F800F8000E0
07800FC000C0
07C007C000C0
03C007C00080
03C007E00180
03E003E00180
03E003F00100
03F001F00300
01F001F00300
01F003F80300
01F803F80700
00F803F80600
00FC06780E00
007C0E7C0C00
007E0C3C1C00
003E0C3C1C00
003E181E1800
003F181E3800
001F301E3000
001FB00F3000
000FB00F7000
000FE00F6000
000FE007E000
0007C007C000
0007C007C000
000380078000
000380038000
000180038000
000180030000
000100010000
ENDCHAR
STARTCHAR 1E81
ENCODING 7809
SWIDTH 782 0
DWIDTH 36 0
BBX 35 34 0 0
BITMAP
0007000000
000F800000
000FC00000
000FC00000
0007E00000
0001F00000
0000700000
0000180000
0000040000
0000000000
0000000000
0000000000
FFE7FE0FE0
FFE7FE0FE0
3F01F807C0
1F00F00780
0F00F00300
0780780600
0780780600
03C07C0400
03C07C0400
03C0BC0800
03E0BE0800
03E0BE1800
01F19F1800
01F19F1800
00FB0FB000
00FB0FB000
0076076000
007E07E000
003C03C000
003C03C000
0018018000
0018018000
ENDCHAR
STARTCHAR 1E82
ENCODING 7810
SWIDTH 1021 0
DWIDTH 47 0
BBX 47 44 0 -1
BITMAP
000000700000
000000F80000
000001F80000
000001F00000
000003C00000
000003000000
000006000000
000008000000
000000000000
000000000000
000000000000
FFF07FF007FE
7FF07FF003FC
1F803FC000F0
0F800F8000E0
07800FC000C0
07C007C000C0
03C007C00080
03C007E00180
03E003E00180
03E003F00100
03F001F00300
01F001F00300
01F003F80300
01F803F80700
00F803F80600
00FC06780E00
007C0E7C0C00
007E0C3C1C00
003E0C3C1C00
003E181E1800
003F181E3800
001F301E3000
001FB00F3000
000FB00F7000
000FE00F6000
000FE007E000
0007C007C000
0007C007C000
000380078000
000380038000
000180038000
000180030000
000100010000
ENDCHAR
STARTCHAR 1E83
ENCODING 7811
SWIDTH 782 0
DWIDTH 36 0
BBX 35 33 0 0
BITMAP
0000060000
00000F0000
00001F0000
00001F0000
00007C0000
0000700000
0000C00000
0001000000
0000000000
0000000000
0000000000
FFE7FE0FE0
FFE7FE0FE0
3F01F807C0
1F00F00780
0F00F00300
0780780600
0780780600
03C07C0400
03C07C0400
03C0BC0800
03E0BE0800
03E0BE1800
01F19F1800
01F19F1800
00FB0FB000
00FB0FB000
0076076000
007E07E000
003C03C000
003C03C000
0018018000
0018018000
ENDCHAR
STARTCHAR 1E84
ENCODING 7812
SWIDTH 1021 0
DWIDTH 47 0
BBX 47 42 0 -1
BITMAP
0000783C0000
0000783C0000
0000783C0000
0000783C0000
000000000000
000000000000
000000000000
000000000000
000000000000
FFF07FF007FE
7FF07FF003FC
1F803FC000F0
0F800F8000E0
07800FC000C0
07C007C000C0
03C007C00080
03C007E00180
03E003E00180
03E003F00100
03F001F00300
01F001F00300
01F003F80300
01F803F80700
00F803F80600
00FC06780E00
007C0E7C0C00
007E0C3C1C00
003E0C3C1C00
003E181E1800
003F181E3800
001F301E3000
001FB00F3000
000FB00F7000
000FE00F6000
000FE007E000
0007C007C000
0007C007C000
000380078000
000380038000
000180038000
000180030000
000100010000
ENDCHAR
STARTCHAR 1E85
ENCODING 7813
SWIDTH 782 0
DWIDTH 36 0
BBX 35 31 0 0
BITMAP
000F87C000
000F87C000
000F87C000
000F87C000
0000000000
0000000000
0000000000
0000000000
0000000000
FFE7FE0FE0
FFE7FE0FE0
3F01F807C0
1F00F00780
0F00F00300
0780780600
0780780600
03C07C0400
03C07C0400
03C0BC0800
03E0BE0800
03E0BE1800
01F19F1800
01F19F1800
00FB0FB000
00FB0FB000
0076076000
007E07E000
003C03C000
003C03C000
0018018000
0018018000
ENDCHAR
STARTCHAR 1EF2
ENCODING 7922
SWIDTH 717 0
DWIDTH 33 0
BBX 31 44 1 0
BITMAP
001C0000
003E0000
003F0000
003F0000
001F8000
0007C000
0001C000
00006000
00001000
00000000
00000000
00000000
FFF007FE
7FE003FE
3F8000F8
0F800060
07800060
07C000C0
07E00180
03E00180
03F00300
01F80700
00F80600
00FC0C00
007E0C00
003E1800
003F3000
000F6000
000FC000
0007C000
0003C000
0003C000
0003C000
0003C000
0003C000
0003C000
0003C000
0003C000
0003C000
0003C000
0003C000
0007E000
007FFC00
007FFE00
ENDCHAR
STARTCHAR 1EF3
ENCODING 7923
SWIDTH 543 0
DWIDTH 25 0
BBX 26 45 -1 -11
BITMAP
00700000
00F80000
00F80000
00F80000
007C0000
001E0000
000E0000
00030000
00008000
00000000
00000000
00000000
7FF07FC0
7FF07FC0
1F801F00
0F801E00
07800C00
03C01800
03C01800
03C03000
01E03000
01E02000
01F02000
01F04000
00F04000
00F8C000
00F8C000
007D8000
003B8000
003B0000
003E0000
001E0000
001E0000
000C0000
001C0000
00180000
00380000
00300000
00300000
00600000
F8C00000
F9800000
73800000
7E000000
1C000000
ENDCHAR
STARTCHAR 2013
ENCODING 8211
SWIDTH 521 0
DWIDTH 24 0
BBX 20 2 2 14
BITMAP
FFFFF0
FFFFF0
ENDCHAR
STARTCHAR 2014
ENCODING 8212
SWIDTH 652 0
DWIDTH 30 0
BBX 27 2 2 14
BITMAP
FFFFFFE0
FFFFFFE0
ENDCHAR
STARTCHAR 2018
ENCODING 8216
SWIDTH 239 0
DWIDTH 11 0
BBX 5 11 3 21
BITMAP
08
10
20
40
C0
C0
D8
F8
F8
F8
78
ENDCHAR
STARTCHAR 2019
ENCODING 8217
SWIDTH 239 0
DWIDTH 11 0
BBX 5 12 3 21
BITMAP
20
F0
F8
F8
78
18
18
10
20
20
40
80
ENDCHAR
STARTCHAR 201A
ENCODING 8218
SWIDTH 239 0
DWIDTH 11 0
BBX 6 12 2 -6
BITMAP
30
78
7C
7C
7C
3C
0C
0C
08
10
10
E0
ENDCHAR
STARTCHAR 201C
ENCODING 8220
SWIDTH 391 0
DWIDTH 18 0
BBX 13 11 3 21
BITMAP
0808
1030
2060
4080
C180
C180
D9B0
F9F8
F9F8
F9F8
78F0
ENDCHAR
STARTCHAR 201D
ENCODING 8221
SWIDTH 391 0
DWIDTH 18 0
BBX 14 12 2 21
BITMAP
1020
78F8
7DFC
7DFC
3CEC
0C0C
0C08
0808
0810
1030
3040
C080
ENDCHAR
STARTCHAR 201E
ENCODING 8222
SWIDTH 391 0
DWIDTH 18 0
BBX 14 12 2 -6
BITMAP
1020
78F8
7DFC
7DFC
7DFC
3CEC
0C0C
0C08
0808
1830
3040
C080
ENDCHAR
STARTCHAR 2020
ENCODING 8224
SWIDTH 565 0
DWIDTH 26 0
BBX 20 36 3 -4
BITMAP
006000
00F000
00F000
006000
006000
006000
006000
006000
7063E0
FF6FF0
FC63E0
206000
006000
006000
006000
00F000
00F000
01F000
00F000
00F000
00F000
00F000
00F000
00F000
00F000
006000
006000
006000
006000
006000
006000
006000
006000
006000
006000
006000
ENDCHAR
STARTCHAR 2021
ENCODING 8225
SWIDTH 565 0
DWIDTH 26 0
BBX 20 43 3 -11
BITMAP
006000
00F000
00F000
006000
006000
006000
006000
006000
7063E0
FF6FF0
FC63E0
206000
006000
007000
00F000
00F800
00F000
006000
006000
006000
006000
006000
006000
006000
006000
00F000
01F800
00F000
00F000
006000
006000
7061E0
FF6FF0
FE67E0
6060E0
006000
006000
006000
007000
00F000
00F000
00F000
002000
ENDCHAR
STARTCHAR 2022
ENCODING 8226
SWIDTH 282 0
DWIDTH 13 0
BBX 7 6 3 13
BITMAP
FE
FE
FE
FE
FE
FE
ENDCHAR
STARTCHAR 2026
ENCODING 8230
SWIDTH 717 0
DWIDTH 33 0
BBX 27 6 3 0
BITMAP
F81F03E0
F81F03E0
F81F03E0
F81F03E0
F81F03E0
F81F03E0
ENDCHAR
STARTCHAR 2039
ENCODING 8249
SWIDTH 369 0
DWIDTH 17 0
BBX 11 21 3 0
BITMAP
0020
0040
00C0
0180
0700
0E00
1E00
1C00
3C00
7800
F800
7C00
3C00
1E00
1E00
0700
0380
0180
00C0
0040
0020
ENDCHAR
STARTCHAR 203A
ENCODING 8250
SWIDTH 369 0
DWIDTH 17 0
BBX 11 21 4 0
BITMAP
8000
4000
4000
2000
3800
3C00
1E00
1F00
0F80
0FC0
07E0
07C0
0F80
0F00
1E00
3800
3000
2000
4000
4000
8000
ENDCHAR
STARTCHAR 2044
ENCODING 8260
SWIDTH 586 0
DWIDTH 27 0
BBX 23 32 2 0
BITMAP
00000E
00000C
000018
000030
000060
000060
0000C0
000180
000180
000100
000200
000200
000600
000E00
000C00
003800
003000
006000
00E000
00C000
018000
018000
030000
060000
060000
0C0000
080000
100000
300000
300000
600000
E00000
ENDCHAR
STARTCHAR 20AC
ENCODING 8364
SWIDTH 630 0
DWIDTH 29 0
BBX 27 32 1 0
BITMAP
000FF020
003FFCE0
007C1EE0
01E00760
03E003E0
03C001E0
07C000E0
078000E0
078000E0
07800060
07000060
0F000000
0F000000
0F000000
FFFFFE00
0F000000
0F000000
FFFFF800
FFFFF000
07800000
0F800000
0F800000
07800000
07C00000
07C00020
07E00060
03F00080
01F80180
00FC0300
007F1E00
003FFC00
000FF800
ENDCHAR
STARTCHAR 2122
ENCODING 8482
SWIDTH 869 0
DWIDTH 40 0
BBX 38 17 1 15
BITMAP
FFFEFC00FC
FF1E7E01F0
C7063E01F0
87822F03F0
87802702F0
07802786F0
07802384F0
078023C4F0
078023CCF0
078021C8F0
078021E8F0
078020F0F0
078020E0F0
078020F0F0
07803070F0
0FF0FC23FC
0FF0FC23FC
ENDCHAR
STARTCHAR 2157
ENCODING 8535
SWIDTH 739 0
DWIDTH 34 0
BBX 32 32 1 0
BITMAP
7FF00060
7FE00060
7FC000C0
41000180
02000300
06000700
07000600
0FC00C00
1FE01C00
01F01800
00F03000
00F03000
60706000
F0F0C000
E0E0C006
33C103FE
1F0102FE
00030200
00060600
00060600
000C0400
001807F8
001807FC
003007FE
0060000E
0060000F
00C00C0F
01800E0E
03000E0E
03000E0E
0600061C
040001F8
ENDCHAR
STARTCHAR 2212
ENCODING 8722
SWIDTH 521 0
DWIDTH 24 0
BBX 20 2 2 14
BITMAP
FFFFF0
FFFFF0
ENDCHAR
STARTCHAR F6BE
ENCODING 63166
SWIDTH 260 0
DWIDTH 12 0
BBX 13 33 -4 -11
BITMAP
0018
01F8
07F8
01F8
0078
0078
0078
0078
0078
0078
0078
0078
0078
0078
0078
0078
0078
0078
0078
0078
0078
0078
0078
0078
0078
0078
0078
0078
F870
F870
70E0
3FC0
0F80
ENDCHAR
STARTCHAR F6C3
ENCODING 63171
SWIDTH 500 0
DWIDTH 23 0
BBX 7 10 8 -12
BITMAP
30
7C
FE
FE
36
0C
0C
18
10
40
ENDCHAR
STARTCHAR FB01
ENCODING 64257
SWIDTH 630 0
DWIDTH 29 0
BBX 28 33 0 0
BITMAP
003F0000
00FF8000
01C0DF00
0381DF00
0301FF00
0700DF00
07000000
07000000
07000000
0F000000
0F000000
7FFC0300
7FFC3F00
0C007F00
0F003F00
0F001F00
0F001F00
0F001F00
0F001F00
0F001F00
0F001F00
0F001F00
0F001F00
0F001F00
0F001F00
0F001F00
0F001F00
0F001F00
0F001F00
0F001F00
0F801F80
3FC07FC0
FFF0FFF0
ENDCHAR
STARTCHAR FB02
ENCODING 64258
SWIDTH 608 0
DWIDTH 28 0
BBX 27 33 0 0
BITMAP
003F0700
00FFFF00
01C0FF00
0381FF00
0301DF00
0700DF00
07001F00
07001F00
07001F00
0F001F00
0F001F00
7FFC1F00
7FFC1F00
0C001F00
0F001F00
0F001F00
0F001F00
0F001F00
0F001F00
0F001F00
0F001F00
0F001F00
0F001F00
0F001F00
0F001F00
0F001F00
0F001F00
0F001F00
0F001F00
0F001F00
0F803F00
3FC07F80
FFF0FFE0
ENDCHAR
ENDFONT
